<?xml version="1.0" encoding="utf-8" standalone="no"?>
<!DOCTYPE svg PUBLIC "-//W3C//DTD SVG 1.1//EN"
  "http://www.w3.org/Graphics/SVG/1.1/DTD/svg11.dtd">
<!-- Created with matplotlib (http://matplotlib.org/) -->
<svg height="345pt" version="1.1" viewBox="0 0 460 345" width="460pt" xmlns="http://www.w3.org/2000/svg" xmlns:xlink="http://www.w3.org/1999/xlink">
 <defs>
  <style type="text/css">
*{stroke-linecap:butt;stroke-linejoin:round;}
  </style>
 </defs>
 <g id="figure_1">
  <g id="patch_1">
   <path d="M 0 345.6 
L 460.8 345.6 
L 460.8 0 
L 0 0 
z
" style="fill:#ffffff;"/>
  </g>
  <g id="axes_1">
   <g id="patch_2">
    <path d="M 57.6 307.584 
L 414.72 307.584 
L 414.72 41.472 
L 57.6 41.472 
z
" style="fill:#ffffff;"/>
   </g>
   <g id="matplotlib.axis_1">
    <g id="xtick_1">
     <g id="line2d_1">
      <path clip-path="url(#pf497c1a956)" d="M 73.832727 307.584 
L 73.832727 41.472 
" style="fill:none;stroke:#b0b0b0;stroke-linecap:square;stroke-width:0.8;"/>
     </g>
     <g id="line2d_2">
      <defs>
       <path d="M 0 0 
L 0 3.5 
" id="m8654f201c8" style="stroke:#000000;stroke-width:0.8;"/>
      </defs>
      <g>
       <use style="stroke:#000000;stroke-width:0.8;" x="73.832727" xlink:href="#m8654f201c8" y="307.584"/>
      </g>
     </g>
     <g id="text_1">
      <!-- 0 -->
      <defs>
       <path d="M 31.78125 66.40625 
Q 24.171875 66.40625 20.328125 58.90625 
Q 16.5 51.421875 16.5 36.375 
Q 16.5 21.390625 20.328125 13.890625 
Q 24.171875 6.390625 31.78125 6.390625 
Q 39.453125 6.390625 43.28125 13.890625 
Q 47.125 21.390625 47.125 36.375 
Q 47.125 51.421875 43.28125 58.90625 
Q 39.453125 66.40625 31.78125 66.40625 
z
M 31.78125 74.21875 
Q 44.046875 74.21875 50.515625 64.515625 
Q 56.984375 54.828125 56.984375 36.375 
Q 56.984375 17.96875 50.515625 8.265625 
Q 44.046875 -1.421875 31.78125 -1.421875 
Q 19.53125 -1.421875 13.0625 8.265625 
Q 6.59375 17.96875 6.59375 36.375 
Q 6.59375 54.828125 13.0625 64.515625 
Q 19.53125 74.21875 31.78125 74.21875 
z
" id="DejaVuSans-30"/>
      </defs>
      <g transform="translate(70.651477 322.182437)scale(0.1 -0.1)">
       <use xlink:href="#DejaVuSans-30"/>
      </g>
     </g>
    </g>
    <g id="xtick_2">
     <g id="line2d_3">
      <path clip-path="url(#pf497c1a956)" d="M 128.122785 307.584 
L 128.122785 41.472 
" style="fill:none;stroke:#b0b0b0;stroke-linecap:square;stroke-width:0.8;"/>
     </g>
     <g id="line2d_4">
      <g>
       <use style="stroke:#000000;stroke-width:0.8;" x="128.122785" xlink:href="#m8654f201c8" y="307.584"/>
      </g>
     </g>
     <g id="text_2">
      <!-- 50 -->
      <defs>
       <path d="M 10.796875 72.90625 
L 49.515625 72.90625 
L 49.515625 64.59375 
L 19.828125 64.59375 
L 19.828125 46.734375 
Q 21.96875 47.46875 24.109375 47.828125 
Q 26.265625 48.1875 28.421875 48.1875 
Q 40.625 48.1875 47.75 41.5 
Q 54.890625 34.8125 54.890625 23.390625 
Q 54.890625 11.625 47.5625 5.09375 
Q 40.234375 -1.421875 26.90625 -1.421875 
Q 22.3125 -1.421875 17.546875 -0.640625 
Q 12.796875 0.140625 7.71875 1.703125 
L 7.71875 11.625 
Q 12.109375 9.234375 16.796875 8.0625 
Q 21.484375 6.890625 26.703125 6.890625 
Q 35.15625 6.890625 40.078125 11.328125 
Q 45.015625 15.765625 45.015625 23.390625 
Q 45.015625 31 40.078125 35.4375 
Q 35.15625 39.890625 26.703125 39.890625 
Q 22.75 39.890625 18.8125 39.015625 
Q 14.890625 38.140625 10.796875 36.28125 
z
" id="DejaVuSans-35"/>
      </defs>
      <g transform="translate(121.760285 322.182437)scale(0.1 -0.1)">
       <use xlink:href="#DejaVuSans-35"/>
       <use x="63.623047" xlink:href="#DejaVuSans-30"/>
      </g>
     </g>
    </g>
    <g id="xtick_3">
     <g id="line2d_5">
      <path clip-path="url(#pf497c1a956)" d="M 182.412843 307.584 
L 182.412843 41.472 
" style="fill:none;stroke:#b0b0b0;stroke-linecap:square;stroke-width:0.8;"/>
     </g>
     <g id="line2d_6">
      <g>
       <use style="stroke:#000000;stroke-width:0.8;" x="182.412843" xlink:href="#m8654f201c8" y="307.584"/>
      </g>
     </g>
     <g id="text_3">
      <!-- 100 -->
      <defs>
       <path d="M 12.40625 8.296875 
L 28.515625 8.296875 
L 28.515625 63.921875 
L 10.984375 60.40625 
L 10.984375 69.390625 
L 28.421875 72.90625 
L 38.28125 72.90625 
L 38.28125 8.296875 
L 54.390625 8.296875 
L 54.390625 0 
L 12.40625 0 
z
" id="DejaVuSans-31"/>
      </defs>
      <g transform="translate(172.869093 322.182437)scale(0.1 -0.1)">
       <use xlink:href="#DejaVuSans-31"/>
       <use x="63.623047" xlink:href="#DejaVuSans-30"/>
       <use x="127.246094" xlink:href="#DejaVuSans-30"/>
      </g>
     </g>
    </g>
    <g id="xtick_4">
     <g id="line2d_7">
      <path clip-path="url(#pf497c1a956)" d="M 236.702901 307.584 
L 236.702901 41.472 
" style="fill:none;stroke:#b0b0b0;stroke-linecap:square;stroke-width:0.8;"/>
     </g>
     <g id="line2d_8">
      <g>
       <use style="stroke:#000000;stroke-width:0.8;" x="236.702901" xlink:href="#m8654f201c8" y="307.584"/>
      </g>
     </g>
     <g id="text_4">
      <!-- 150 -->
      <g transform="translate(227.159151 322.182437)scale(0.1 -0.1)">
       <use xlink:href="#DejaVuSans-31"/>
       <use x="63.623047" xlink:href="#DejaVuSans-35"/>
       <use x="127.246094" xlink:href="#DejaVuSans-30"/>
      </g>
     </g>
    </g>
    <g id="xtick_5">
     <g id="line2d_9">
      <path clip-path="url(#pf497c1a956)" d="M 290.992958 307.584 
L 290.992958 41.472 
" style="fill:none;stroke:#b0b0b0;stroke-linecap:square;stroke-width:0.8;"/>
     </g>
     <g id="line2d_10">
      <g>
       <use style="stroke:#000000;stroke-width:0.8;" x="290.992958" xlink:href="#m8654f201c8" y="307.584"/>
      </g>
     </g>
     <g id="text_5">
      <!-- 200 -->
      <defs>
       <path d="M 19.1875 8.296875 
L 53.609375 8.296875 
L 53.609375 0 
L 7.328125 0 
L 7.328125 8.296875 
Q 12.9375 14.109375 22.625 23.890625 
Q 32.328125 33.6875 34.8125 36.53125 
Q 39.546875 41.84375 41.421875 45.53125 
Q 43.3125 49.21875 43.3125 52.78125 
Q 43.3125 58.59375 39.234375 62.25 
Q 35.15625 65.921875 28.609375 65.921875 
Q 23.96875 65.921875 18.8125 64.3125 
Q 13.671875 62.703125 7.8125 59.421875 
L 7.8125 69.390625 
Q 13.765625 71.78125 18.9375 73 
Q 24.125 74.21875 28.421875 74.21875 
Q 39.75 74.21875 46.484375 68.546875 
Q 53.21875 62.890625 53.21875 53.421875 
Q 53.21875 48.921875 51.53125 44.890625 
Q 49.859375 40.875 45.40625 35.40625 
Q 44.1875 33.984375 37.640625 27.21875 
Q 31.109375 20.453125 19.1875 8.296875 
z
" id="DejaVuSans-32"/>
      </defs>
      <g transform="translate(281.449208 322.182437)scale(0.1 -0.1)">
       <use xlink:href="#DejaVuSans-32"/>
       <use x="63.623047" xlink:href="#DejaVuSans-30"/>
       <use x="127.246094" xlink:href="#DejaVuSans-30"/>
      </g>
     </g>
    </g>
    <g id="xtick_6">
     <g id="line2d_11">
      <path clip-path="url(#pf497c1a956)" d="M 345.283016 307.584 
L 345.283016 41.472 
" style="fill:none;stroke:#b0b0b0;stroke-linecap:square;stroke-width:0.8;"/>
     </g>
     <g id="line2d_12">
      <g>
       <use style="stroke:#000000;stroke-width:0.8;" x="345.283016" xlink:href="#m8654f201c8" y="307.584"/>
      </g>
     </g>
     <g id="text_6">
      <!-- 250 -->
      <g transform="translate(335.739266 322.182437)scale(0.1 -0.1)">
       <use xlink:href="#DejaVuSans-32"/>
       <use x="63.623047" xlink:href="#DejaVuSans-35"/>
       <use x="127.246094" xlink:href="#DejaVuSans-30"/>
      </g>
     </g>
    </g>
    <g id="xtick_7">
     <g id="line2d_13">
      <path clip-path="url(#pf497c1a956)" d="M 399.573074 307.584 
L 399.573074 41.472 
" style="fill:none;stroke:#b0b0b0;stroke-linecap:square;stroke-width:0.8;"/>
     </g>
     <g id="line2d_14">
      <g>
       <use style="stroke:#000000;stroke-width:0.8;" x="399.573074" xlink:href="#m8654f201c8" y="307.584"/>
      </g>
     </g>
     <g id="text_7">
      <!-- 300 -->
      <defs>
       <path d="M 40.578125 39.3125 
Q 47.65625 37.796875 51.625 33 
Q 55.609375 28.21875 55.609375 21.1875 
Q 55.609375 10.40625 48.1875 4.484375 
Q 40.765625 -1.421875 27.09375 -1.421875 
Q 22.515625 -1.421875 17.65625 -0.515625 
Q 12.796875 0.390625 7.625 2.203125 
L 7.625 11.71875 
Q 11.71875 9.328125 16.59375 8.109375 
Q 21.484375 6.890625 26.8125 6.890625 
Q 36.078125 6.890625 40.9375 10.546875 
Q 45.796875 14.203125 45.796875 21.1875 
Q 45.796875 27.640625 41.28125 31.265625 
Q 36.765625 34.90625 28.71875 34.90625 
L 20.21875 34.90625 
L 20.21875 43.015625 
L 29.109375 43.015625 
Q 36.375 43.015625 40.234375 45.921875 
Q 44.09375 48.828125 44.09375 54.296875 
Q 44.09375 59.90625 40.109375 62.90625 
Q 36.140625 65.921875 28.71875 65.921875 
Q 24.65625 65.921875 20.015625 65.03125 
Q 15.375 64.15625 9.8125 62.3125 
L 9.8125 71.09375 
Q 15.4375 72.65625 20.34375 73.4375 
Q 25.25 74.21875 29.59375 74.21875 
Q 40.828125 74.21875 47.359375 69.109375 
Q 53.90625 64.015625 53.90625 55.328125 
Q 53.90625 49.265625 50.4375 45.09375 
Q 46.96875 40.921875 40.578125 39.3125 
z
" id="DejaVuSans-33"/>
      </defs>
      <g transform="translate(390.029324 322.182437)scale(0.1 -0.1)">
       <use xlink:href="#DejaVuSans-33"/>
       <use x="63.623047" xlink:href="#DejaVuSans-30"/>
       <use x="127.246094" xlink:href="#DejaVuSans-30"/>
      </g>
     </g>
    </g>
    <g id="text_8">
     <!-- Generations -->
     <defs>
      <path d="M 59.515625 10.40625 
L 59.515625 29.984375 
L 43.40625 29.984375 
L 43.40625 38.09375 
L 69.28125 38.09375 
L 69.28125 6.78125 
Q 63.578125 2.734375 56.6875 0.65625 
Q 49.8125 -1.421875 42 -1.421875 
Q 24.90625 -1.421875 15.25 8.5625 
Q 5.609375 18.5625 5.609375 36.375 
Q 5.609375 54.25 15.25 64.234375 
Q 24.90625 74.21875 42 74.21875 
Q 49.125 74.21875 55.546875 72.453125 
Q 61.96875 70.703125 67.390625 67.28125 
L 67.390625 56.78125 
Q 61.921875 61.421875 55.765625 63.765625 
Q 49.609375 66.109375 42.828125 66.109375 
Q 29.4375 66.109375 22.71875 58.640625 
Q 16.015625 51.171875 16.015625 36.375 
Q 16.015625 21.625 22.71875 14.15625 
Q 29.4375 6.6875 42.828125 6.6875 
Q 48.046875 6.6875 52.140625 7.59375 
Q 56.25 8.5 59.515625 10.40625 
z
" id="DejaVuSans-47"/>
      <path d="M 56.203125 29.59375 
L 56.203125 25.203125 
L 14.890625 25.203125 
Q 15.484375 15.921875 20.484375 11.0625 
Q 25.484375 6.203125 34.421875 6.203125 
Q 39.59375 6.203125 44.453125 7.46875 
Q 49.3125 8.734375 54.109375 11.28125 
L 54.109375 2.78125 
Q 49.265625 0.734375 44.1875 -0.34375 
Q 39.109375 -1.421875 33.890625 -1.421875 
Q 20.796875 -1.421875 13.15625 6.1875 
Q 5.515625 13.8125 5.515625 26.8125 
Q 5.515625 40.234375 12.765625 48.109375 
Q 20.015625 56 32.328125 56 
Q 43.359375 56 49.78125 48.890625 
Q 56.203125 41.796875 56.203125 29.59375 
z
M 47.21875 32.234375 
Q 47.125 39.59375 43.09375 43.984375 
Q 39.0625 48.390625 32.421875 48.390625 
Q 24.90625 48.390625 20.390625 44.140625 
Q 15.875 39.890625 15.1875 32.171875 
z
" id="DejaVuSans-65"/>
      <path d="M 54.890625 33.015625 
L 54.890625 0 
L 45.90625 0 
L 45.90625 32.71875 
Q 45.90625 40.484375 42.875 44.328125 
Q 39.84375 48.1875 33.796875 48.1875 
Q 26.515625 48.1875 22.3125 43.546875 
Q 18.109375 38.921875 18.109375 30.90625 
L 18.109375 0 
L 9.078125 0 
L 9.078125 54.6875 
L 18.109375 54.6875 
L 18.109375 46.1875 
Q 21.34375 51.125 25.703125 53.5625 
Q 30.078125 56 35.796875 56 
Q 45.21875 56 50.046875 50.171875 
Q 54.890625 44.34375 54.890625 33.015625 
z
" id="DejaVuSans-6e"/>
      <path d="M 41.109375 46.296875 
Q 39.59375 47.171875 37.8125 47.578125 
Q 36.03125 48 33.890625 48 
Q 26.265625 48 22.1875 43.046875 
Q 18.109375 38.09375 18.109375 28.8125 
L 18.109375 0 
L 9.078125 0 
L 9.078125 54.6875 
L 18.109375 54.6875 
L 18.109375 46.1875 
Q 20.953125 51.171875 25.484375 53.578125 
Q 30.03125 56 36.53125 56 
Q 37.453125 56 38.578125 55.875 
Q 39.703125 55.765625 41.0625 55.515625 
z
" id="DejaVuSans-72"/>
      <path d="M 34.28125 27.484375 
Q 23.390625 27.484375 19.1875 25 
Q 14.984375 22.515625 14.984375 16.5 
Q 14.984375 11.71875 18.140625 8.90625 
Q 21.296875 6.109375 26.703125 6.109375 
Q 34.1875 6.109375 38.703125 11.40625 
Q 43.21875 16.703125 43.21875 25.484375 
L 43.21875 27.484375 
z
M 52.203125 31.203125 
L 52.203125 0 
L 43.21875 0 
L 43.21875 8.296875 
Q 40.140625 3.328125 35.546875 0.953125 
Q 30.953125 -1.421875 24.3125 -1.421875 
Q 15.921875 -1.421875 10.953125 3.296875 
Q 6 8.015625 6 15.921875 
Q 6 25.140625 12.171875 29.828125 
Q 18.359375 34.515625 30.609375 34.515625 
L 43.21875 34.515625 
L 43.21875 35.40625 
Q 43.21875 41.609375 39.140625 45 
Q 35.0625 48.390625 27.6875 48.390625 
Q 23 48.390625 18.546875 47.265625 
Q 14.109375 46.140625 10.015625 43.890625 
L 10.015625 52.203125 
Q 14.9375 54.109375 19.578125 55.046875 
Q 24.21875 56 28.609375 56 
Q 40.484375 56 46.34375 49.84375 
Q 52.203125 43.703125 52.203125 31.203125 
z
" id="DejaVuSans-61"/>
      <path d="M 18.3125 70.21875 
L 18.3125 54.6875 
L 36.8125 54.6875 
L 36.8125 47.703125 
L 18.3125 47.703125 
L 18.3125 18.015625 
Q 18.3125 11.328125 20.140625 9.421875 
Q 21.96875 7.515625 27.59375 7.515625 
L 36.8125 7.515625 
L 36.8125 0 
L 27.59375 0 
Q 17.1875 0 13.234375 3.875 
Q 9.28125 7.765625 9.28125 18.015625 
L 9.28125 47.703125 
L 2.6875 47.703125 
L 2.6875 54.6875 
L 9.28125 54.6875 
L 9.28125 70.21875 
z
" id="DejaVuSans-74"/>
      <path d="M 9.421875 54.6875 
L 18.40625 54.6875 
L 18.40625 0 
L 9.421875 0 
z
M 9.421875 75.984375 
L 18.40625 75.984375 
L 18.40625 64.59375 
L 9.421875 64.59375 
z
" id="DejaVuSans-69"/>
      <path d="M 30.609375 48.390625 
Q 23.390625 48.390625 19.1875 42.75 
Q 14.984375 37.109375 14.984375 27.296875 
Q 14.984375 17.484375 19.15625 11.84375 
Q 23.34375 6.203125 30.609375 6.203125 
Q 37.796875 6.203125 41.984375 11.859375 
Q 46.1875 17.53125 46.1875 27.296875 
Q 46.1875 37.015625 41.984375 42.703125 
Q 37.796875 48.390625 30.609375 48.390625 
z
M 30.609375 56 
Q 42.328125 56 49.015625 48.375 
Q 55.71875 40.765625 55.71875 27.296875 
Q 55.71875 13.875 49.015625 6.21875 
Q 42.328125 -1.421875 30.609375 -1.421875 
Q 18.84375 -1.421875 12.171875 6.21875 
Q 5.515625 13.875 5.515625 27.296875 
Q 5.515625 40.765625 12.171875 48.375 
Q 18.84375 56 30.609375 56 
z
" id="DejaVuSans-6f"/>
      <path d="M 44.28125 53.078125 
L 44.28125 44.578125 
Q 40.484375 46.53125 36.375 47.5 
Q 32.28125 48.484375 27.875 48.484375 
Q 21.1875 48.484375 17.84375 46.4375 
Q 14.5 44.390625 14.5 40.28125 
Q 14.5 37.15625 16.890625 35.375 
Q 19.28125 33.59375 26.515625 31.984375 
L 29.59375 31.296875 
Q 39.15625 29.25 43.1875 25.515625 
Q 47.21875 21.78125 47.21875 15.09375 
Q 47.21875 7.46875 41.1875 3.015625 
Q 35.15625 -1.421875 24.609375 -1.421875 
Q 20.21875 -1.421875 15.453125 -0.5625 
Q 10.6875 0.296875 5.421875 2 
L 5.421875 11.28125 
Q 10.40625 8.6875 15.234375 7.390625 
Q 20.0625 6.109375 24.8125 6.109375 
Q 31.15625 6.109375 34.5625 8.28125 
Q 37.984375 10.453125 37.984375 14.40625 
Q 37.984375 18.0625 35.515625 20.015625 
Q 33.0625 21.96875 24.703125 23.78125 
L 21.578125 24.515625 
Q 13.234375 26.265625 9.515625 29.90625 
Q 5.8125 33.546875 5.8125 39.890625 
Q 5.8125 47.609375 11.28125 51.796875 
Q 16.75 56 26.8125 56 
Q 31.78125 56 36.171875 55.265625 
Q 40.578125 54.546875 44.28125 53.078125 
z
" id="DejaVuSans-73"/>
     </defs>
     <g transform="translate(205.662344 335.860562)scale(0.1 -0.1)">
      <use xlink:href="#DejaVuSans-47"/>
      <use x="77.490234" xlink:href="#DejaVuSans-65"/>
      <use x="139.013672" xlink:href="#DejaVuSans-6e"/>
      <use x="202.392578" xlink:href="#DejaVuSans-65"/>
      <use x="263.916016" xlink:href="#DejaVuSans-72"/>
      <use x="305.029297" xlink:href="#DejaVuSans-61"/>
      <use x="366.308594" xlink:href="#DejaVuSans-74"/>
      <use x="405.517578" xlink:href="#DejaVuSans-69"/>
      <use x="433.300781" xlink:href="#DejaVuSans-6f"/>
      <use x="494.482422" xlink:href="#DejaVuSans-6e"/>
      <use x="557.861328" xlink:href="#DejaVuSans-73"/>
     </g>
    </g>
   </g>
   <g id="matplotlib.axis_2">
    <g id="ytick_1">
     <g id="line2d_15">
      <path clip-path="url(#pf497c1a956)" d="M 57.6 267.958833 
L 414.72 267.958833 
" style="fill:none;stroke:#b0b0b0;stroke-linecap:square;stroke-width:0.8;"/>
     </g>
     <g id="line2d_16">
      <defs>
       <path d="M 0 0 
L -3.5 0 
" id="m115cef9a69" style="stroke:#000000;stroke-width:0.8;"/>
      </defs>
      <g>
       <use style="stroke:#000000;stroke-width:0.8;" x="57.6" xlink:href="#m115cef9a69" y="267.958833"/>
      </g>
     </g>
     <g id="text_9">
      <!-- 0.5 -->
      <defs>
       <path d="M 10.6875 12.40625 
L 21 12.40625 
L 21 0 
L 10.6875 0 
z
" id="DejaVuSans-2e"/>
      </defs>
      <g transform="translate(34.696875 271.758052)scale(0.1 -0.1)">
       <use xlink:href="#DejaVuSans-30"/>
       <use x="63.623047" xlink:href="#DejaVuSans-2e"/>
       <use x="95.410156" xlink:href="#DejaVuSans-35"/>
      </g>
     </g>
    </g>
    <g id="ytick_2">
     <g id="line2d_17">
      <path clip-path="url(#pf497c1a956)" d="M 57.6 221.107309 
L 414.72 221.107309 
" style="fill:none;stroke:#b0b0b0;stroke-linecap:square;stroke-width:0.8;"/>
     </g>
     <g id="line2d_18">
      <g>
       <use style="stroke:#000000;stroke-width:0.8;" x="57.6" xlink:href="#m115cef9a69" y="221.107309"/>
      </g>
     </g>
     <g id="text_10">
      <!-- 0.6 -->
      <defs>
       <path d="M 33.015625 40.375 
Q 26.375 40.375 22.484375 35.828125 
Q 18.609375 31.296875 18.609375 23.390625 
Q 18.609375 15.53125 22.484375 10.953125 
Q 26.375 6.390625 33.015625 6.390625 
Q 39.65625 6.390625 43.53125 10.953125 
Q 47.40625 15.53125 47.40625 23.390625 
Q 47.40625 31.296875 43.53125 35.828125 
Q 39.65625 40.375 33.015625 40.375 
z
M 52.59375 71.296875 
L 52.59375 62.3125 
Q 48.875 64.0625 45.09375 64.984375 
Q 41.3125 65.921875 37.59375 65.921875 
Q 27.828125 65.921875 22.671875 59.328125 
Q 17.53125 52.734375 16.796875 39.40625 
Q 19.671875 43.65625 24.015625 45.921875 
Q 28.375 48.1875 33.59375 48.1875 
Q 44.578125 48.1875 50.953125 41.515625 
Q 57.328125 34.859375 57.328125 23.390625 
Q 57.328125 12.15625 50.6875 5.359375 
Q 44.046875 -1.421875 33.015625 -1.421875 
Q 20.359375 -1.421875 13.671875 8.265625 
Q 6.984375 17.96875 6.984375 36.375 
Q 6.984375 53.65625 15.1875 63.9375 
Q 23.390625 74.21875 37.203125 74.21875 
Q 40.921875 74.21875 44.703125 73.484375 
Q 48.484375 72.75 52.59375 71.296875 
z
" id="DejaVuSans-36"/>
      </defs>
      <g transform="translate(34.696875 224.906528)scale(0.1 -0.1)">
       <use xlink:href="#DejaVuSans-30"/>
       <use x="63.623047" xlink:href="#DejaVuSans-2e"/>
       <use x="95.410156" xlink:href="#DejaVuSans-36"/>
      </g>
     </g>
    </g>
    <g id="ytick_3">
     <g id="line2d_19">
      <path clip-path="url(#pf497c1a956)" d="M 57.6 174.255785 
L 414.72 174.255785 
" style="fill:none;stroke:#b0b0b0;stroke-linecap:square;stroke-width:0.8;"/>
     </g>
     <g id="line2d_20">
      <g>
       <use style="stroke:#000000;stroke-width:0.8;" x="57.6" xlink:href="#m115cef9a69" y="174.255785"/>
      </g>
     </g>
     <g id="text_11">
      <!-- 0.7 -->
      <defs>
       <path d="M 8.203125 72.90625 
L 55.078125 72.90625 
L 55.078125 68.703125 
L 28.609375 0 
L 18.3125 0 
L 43.21875 64.59375 
L 8.203125 64.59375 
z
" id="DejaVuSans-37"/>
      </defs>
      <g transform="translate(34.696875 178.055004)scale(0.1 -0.1)">
       <use xlink:href="#DejaVuSans-30"/>
       <use x="63.623047" xlink:href="#DejaVuSans-2e"/>
       <use x="95.410156" xlink:href="#DejaVuSans-37"/>
      </g>
     </g>
    </g>
    <g id="ytick_4">
     <g id="line2d_21">
      <path clip-path="url(#pf497c1a956)" d="M 57.6 127.404261 
L 414.72 127.404261 
" style="fill:none;stroke:#b0b0b0;stroke-linecap:square;stroke-width:0.8;"/>
     </g>
     <g id="line2d_22">
      <g>
       <use style="stroke:#000000;stroke-width:0.8;" x="57.6" xlink:href="#m115cef9a69" y="127.404261"/>
      </g>
     </g>
     <g id="text_12">
      <!-- 0.8 -->
      <defs>
       <path d="M 31.78125 34.625 
Q 24.75 34.625 20.71875 30.859375 
Q 16.703125 27.09375 16.703125 20.515625 
Q 16.703125 13.921875 20.71875 10.15625 
Q 24.75 6.390625 31.78125 6.390625 
Q 38.8125 6.390625 42.859375 10.171875 
Q 46.921875 13.96875 46.921875 20.515625 
Q 46.921875 27.09375 42.890625 30.859375 
Q 38.875 34.625 31.78125 34.625 
z
M 21.921875 38.8125 
Q 15.578125 40.375 12.03125 44.71875 
Q 8.5 49.078125 8.5 55.328125 
Q 8.5 64.0625 14.71875 69.140625 
Q 20.953125 74.21875 31.78125 74.21875 
Q 42.671875 74.21875 48.875 69.140625 
Q 55.078125 64.0625 55.078125 55.328125 
Q 55.078125 49.078125 51.53125 44.71875 
Q 48 40.375 41.703125 38.8125 
Q 48.828125 37.15625 52.796875 32.3125 
Q 56.78125 27.484375 56.78125 20.515625 
Q 56.78125 9.90625 50.3125 4.234375 
Q 43.84375 -1.421875 31.78125 -1.421875 
Q 19.734375 -1.421875 13.25 4.234375 
Q 6.78125 9.90625 6.78125 20.515625 
Q 6.78125 27.484375 10.78125 32.3125 
Q 14.796875 37.15625 21.921875 38.8125 
z
M 18.3125 54.390625 
Q 18.3125 48.734375 21.84375 45.5625 
Q 25.390625 42.390625 31.78125 42.390625 
Q 38.140625 42.390625 41.71875 45.5625 
Q 45.3125 48.734375 45.3125 54.390625 
Q 45.3125 60.0625 41.71875 63.234375 
Q 38.140625 66.40625 31.78125 66.40625 
Q 25.390625 66.40625 21.84375 63.234375 
Q 18.3125 60.0625 18.3125 54.390625 
z
" id="DejaVuSans-38"/>
      </defs>
      <g transform="translate(34.696875 131.20348)scale(0.1 -0.1)">
       <use xlink:href="#DejaVuSans-30"/>
       <use x="63.623047" xlink:href="#DejaVuSans-2e"/>
       <use x="95.410156" xlink:href="#DejaVuSans-38"/>
      </g>
     </g>
    </g>
    <g id="ytick_5">
     <g id="line2d_23">
      <path clip-path="url(#pf497c1a956)" d="M 57.6 80.552737 
L 414.72 80.552737 
" style="fill:none;stroke:#b0b0b0;stroke-linecap:square;stroke-width:0.8;"/>
     </g>
     <g id="line2d_24">
      <g>
       <use style="stroke:#000000;stroke-width:0.8;" x="57.6" xlink:href="#m115cef9a69" y="80.552737"/>
      </g>
     </g>
     <g id="text_13">
      <!-- 0.9 -->
      <defs>
       <path d="M 10.984375 1.515625 
L 10.984375 10.5 
Q 14.703125 8.734375 18.5 7.8125 
Q 22.3125 6.890625 25.984375 6.890625 
Q 35.75 6.890625 40.890625 13.453125 
Q 46.046875 20.015625 46.78125 33.40625 
Q 43.953125 29.203125 39.59375 26.953125 
Q 35.25 24.703125 29.984375 24.703125 
Q 19.046875 24.703125 12.671875 31.3125 
Q 6.296875 37.9375 6.296875 49.421875 
Q 6.296875 60.640625 12.9375 67.421875 
Q 19.578125 74.21875 30.609375 74.21875 
Q 43.265625 74.21875 49.921875 64.515625 
Q 56.59375 54.828125 56.59375 36.375 
Q 56.59375 19.140625 48.40625 8.859375 
Q 40.234375 -1.421875 26.421875 -1.421875 
Q 22.703125 -1.421875 18.890625 -0.6875 
Q 15.09375 0.046875 10.984375 1.515625 
z
M 30.609375 32.421875 
Q 37.25 32.421875 41.125 36.953125 
Q 45.015625 41.5 45.015625 49.421875 
Q 45.015625 57.28125 41.125 61.84375 
Q 37.25 66.40625 30.609375 66.40625 
Q 23.96875 66.40625 20.09375 61.84375 
Q 16.21875 57.28125 16.21875 49.421875 
Q 16.21875 41.5 20.09375 36.953125 
Q 23.96875 32.421875 30.609375 32.421875 
z
" id="DejaVuSans-39"/>
      </defs>
      <g transform="translate(34.696875 84.351956)scale(0.1 -0.1)">
       <use xlink:href="#DejaVuSans-30"/>
       <use x="63.623047" xlink:href="#DejaVuSans-2e"/>
       <use x="95.410156" xlink:href="#DejaVuSans-39"/>
      </g>
     </g>
    </g>
    <g id="text_14">
     <!-- Fitness -->
     <defs>
      <path d="M 9.8125 72.90625 
L 51.703125 72.90625 
L 51.703125 64.59375 
L 19.671875 64.59375 
L 19.671875 43.109375 
L 48.578125 43.109375 
L 48.578125 34.8125 
L 19.671875 34.8125 
L 19.671875 0 
L 9.8125 0 
z
" id="DejaVuSans-46"/>
     </defs>
     <g transform="translate(28.617187 192.202219)rotate(-90)scale(0.1 -0.1)">
      <use xlink:href="#DejaVuSans-46"/>
      <use x="57.410156" xlink:href="#DejaVuSans-69"/>
      <use x="85.193359" xlink:href="#DejaVuSans-74"/>
      <use x="124.402344" xlink:href="#DejaVuSans-6e"/>
      <use x="187.78125" xlink:href="#DejaVuSans-65"/>
      <use x="249.304688" xlink:href="#DejaVuSans-73"/>
      <use x="301.404297" xlink:href="#DejaVuSans-73"/>
     </g>
    </g>
   </g>
   <g id="line2d_25">
    <path clip-path="url(#pf497c1a956)" d="M 73.832727 236.616934 
L 74.918528 200.541627 
L 76.00433 188.860017 
L 77.090131 187.194062 
L 78.175932 188.729919 
L 79.261733 186.403183 
L 80.347534 181.009834 
L 81.433335 188.001828 
L 82.519137 186.302868 
L 83.604938 178.496251 
L 84.690739 186.131416 
L 85.77654 178.228301 
L 86.862341 184.965185 
L 87.948142 184.537049 
L 89.033943 172.036854 
L 90.119745 180.089525 
L 91.205546 169.985327 
L 92.291347 174.931649 
L 93.377148 176.501635 
L 94.462949 182.083891 
L 95.54875 180.842837 
L 96.634552 184.442036 
L 97.720353 176.698157 
L 98.806154 178.703007 
L 99.891955 170.877668 
L 100.977756 169.412694 
L 102.063557 168.28981 
L 103.149358 171.246119 
L 104.23516 172.919728 
L 105.320961 181.529849 
L 106.406762 170.409634 
L 107.492563 173.73976 
L 108.578364 168.395861 
L 109.664165 164.22114 
L 110.749967 172.609234 
L 111.835768 169.729135 
L 112.921569 168.105158 
L 114.00737 172.915709 
L 115.093171 162.787457 
L 116.178972 167.498426 
L 117.264773 177.664555 
L 118.350575 177.033871 
L 119.436376 171.947099 
L 120.522177 165.791873 
L 121.607978 174.480785 
L 122.693779 175.897444 
L 123.77958 172.286597 
L 124.865382 166.158247 
L 125.951183 168.749763 
L 127.036984 163.146863 
L 128.122785 167.189464 
L 129.208586 174.893296 
L 130.294387 167.416003 
L 131.380189 172.431401 
L 132.46599 160.187881 
L 133.551791 171.356606 
L 134.637592 176.667017 
L 135.723393 172.80882 
L 136.809194 163.533906 
L 137.894995 158.9935 
L 138.980797 157.759201 
L 140.066598 162.304563 
L 141.152399 152.401284 
L 142.2382 163.944304 
L 143.324001 156.228549 
L 144.409802 166.944212 
L 145.495604 161.446892 
L 146.581405 172.141022 
L 147.667206 159.033535 
L 148.753007 156.568923 
L 149.838808 147.09784 
L 150.924609 149.044724 
L 152.01041 150.67737 
L 153.096212 159.625846 
L 154.182013 154.919551 
L 155.267814 154.823257 
L 156.353615 145.766799 
L 157.439416 145.702052 
L 158.525217 145.264546 
L 159.611019 151.562292 
L 160.69682 141.555232 
L 161.782621 143.937528 
L 162.868422 140.252192 
L 163.954223 150.618729 
L 165.040024 140.797941 
L 166.125825 134.970367 
L 167.211627 148.086005 
L 168.297428 138.3611 
L 169.383229 138.59081 
L 170.46903 138.345992 
L 171.554831 147.483845 
L 172.640632 150.083187 
L 173.726434 150.014378 
L 174.812235 155.073027 
L 175.898036 152.528181 
L 176.983837 151.747051 
L 178.069638 148.81166 
L 179.155439 150.651569 
L 180.24124 150.086568 
L 181.327042 166.508311 
L 182.412843 162.471743 
L 183.498644 155.818776 
L 184.584445 159.113979 
L 185.670246 156.517433 
L 186.756047 156.865127 
L 187.841849 155.009665 
L 188.92765 164.112775 
L 190.013451 157.561895 
L 191.099252 170.270378 
L 192.185053 168.470414 
L 193.270854 162.474483 
L 194.356656 169.858279 
L 195.442457 163.475529 
L 196.528258 168.004044 
L 197.614059 165.391838 
L 198.69986 166.396767 
L 199.785661 157.358391 
L 200.871462 155.938929 
L 201.957264 150.624192 
L 203.043065 160.572121 
L 204.128866 150.387521 
L 205.214667 149.063985 
L 206.300468 152.070812 
L 207.386269 152.863512 
L 208.472071 146.118936 
L 209.557872 145.324139 
L 210.643673 149.57313 
L 211.729474 146.283098 
L 212.815275 138.888231 
L 213.901076 144.750606 
L 214.986877 155.434621 
L 216.072679 151.447198 
L 217.15848 142.99851 
L 218.244281 135.711776 
L 219.330082 147.523862 
L 220.415883 146.9764 
L 221.501684 151.99788 
L 222.587486 148.899537 
L 223.673287 144.327084 
L 224.759088 150.068894 
L 225.844889 144.634665 
L 226.93069 146.78846 
L 228.016491 135.94704 
L 229.102292 133.750574 
L 230.188094 131.046937 
L 231.273895 148.740645 
L 232.359696 145.722772 
L 233.445497 144.631504 
L 234.531298 146.616909 
L 235.617099 156.682259 
L 236.702901 135.713367 
L 237.788702 147.120922 
L 238.874503 151.1797 
L 239.960304 157.996206 
L 241.046105 154.24693 
L 242.131906 155.599416 
L 243.217708 162.371161 
L 244.303509 168.077187 
L 245.38931 168.650354 
L 246.475111 165.633615 
L 247.560912 156.819905 
L 248.646713 167.433623 
L 249.732514 167.63265 
L 250.818316 174.407323 
L 251.904117 166.034544 
L 252.989918 165.001663 
L 254.075719 167.027259 
L 255.16152 167.102296 
L 256.247321 164.321529 
L 257.333123 174.552206 
L 258.418924 163.558319 
L 259.504725 172.331336 
L 260.590526 172.691166 
L 261.676327 169.421565 
L 262.762128 170.759925 
L 263.847929 164.125193 
L 264.933731 161.184455 
L 266.019532 174.659089 
L 267.105333 177.024163 
L 268.191134 171.463943 
L 269.276935 172.06667 
L 270.362736 179.095502 
L 271.448538 179.573181 
L 272.534339 177.820277 
L 273.62014 182.625242 
L 274.705941 172.644855 
L 275.791742 170.992217 
L 276.877543 168.358222 
L 277.963344 178.000522 
L 279.049146 172.32166 
L 280.134947 177.644858 
L 281.220748 181.542975 
L 282.306549 175.937317 
L 283.39235 180.767615 
L 284.478151 189.487852 
L 285.563953 189.339488 
L 286.649754 185.11124 
L 287.735555 188.085223 
L 288.821356 179.028697 
L 289.907157 182.102098 
L 290.992958 170.007663 
L 292.07876 179.715207 
L 293.164561 180.662461 
L 294.250362 184.175549 
L 295.336163 172.502928 
L 296.421964 181.449129 
L 297.507765 185.051355 
L 298.593566 172.787282 
L 299.679368 168.767863 
L 300.765169 179.921911 
L 301.85097 175.937445 
L 302.936771 168.494956 
L 304.022572 182.114608 
L 305.108373 183.428533 
L 306.194175 175.423892 
L 307.279976 179.144923 
L 308.365777 177.05518 
L 309.451578 180.264246 
L 310.537379 171.178003 
L 311.62318 171.693959 
L 312.708981 186.13262 
L 313.794783 188.541594 
L 314.880584 183.76627 
L 315.966385 175.631074 
L 317.052186 182.194761 
L 318.137987 182.21228 
L 319.223788 187.945115 
L 320.30959 197.097119 
L 321.395391 185.823022 
L 322.481192 180.868089 
L 323.566993 196.552254 
L 324.652794 193.741745 
L 325.738595 184.488262 
L 326.824396 185.276644 
L 327.910198 180.492262 
L 328.995999 187.100244 
L 330.0818 186.537278 
L 331.167601 184.898068 
L 332.253402 191.857935 
L 333.339203 181.017806 
L 334.425005 186.392849 
L 335.510806 186.578777 
L 336.596607 176.395542 
L 337.682408 190.922169 
L 338.768209 196.916369 
L 339.85401 187.853114 
L 340.939811 189.61042 
L 342.025613 190.761068 
L 343.111414 193.310584 
L 344.197215 190.459048 
L 345.283016 188.554764 
L 346.368817 190.507653 
L 347.454618 190.36917 
L 348.54042 178.712003 
L 349.626221 183.450952 
L 350.712022 181.993782 
L 351.797823 186.867601 
L 352.883624 193.624945 
L 353.969425 185.250841 
L 355.055227 181.658524 
L 356.141028 181.076427 
L 357.226829 178.819638 
L 358.31263 180.621905 
L 359.398431 182.753136 
L 360.484232 179.496518 
L 361.570033 172.532806 
L 362.655835 180.832491 
L 363.741636 175.437352 
L 364.827437 156.846893 
L 365.913238 170.200844 
L 366.999039 167.406265 
L 368.08484 175.29772 
L 369.170642 171.37664 
L 370.256443 171.252404 
L 371.342244 170.671474 
L 372.428045 165.490333 
L 373.513846 153.333466 
L 374.599647 168.026833 
L 375.685448 171.029842 
L 376.77125 160.002857 
L 377.857051 171.257727 
L 378.942852 170.679661 
L 380.028653 162.985641 
L 381.114454 171.766702 
L 382.200255 167.07349 
L 383.286057 177.974736 
L 384.371858 167.406619 
L 385.457659 174.10154 
L 386.54346 172.443902 
L 387.629261 159.761 
L 388.715062 162.764612 
L 389.800863 171.471349 
L 390.886665 167.404143 
L 391.972466 169.514731 
L 393.058267 155.871199 
L 394.144068 160.532778 
L 395.229869 161.687739 
L 396.31567 173.849093 
L 397.401472 178.664843 
L 398.487273 175.787776 
L 398.487273 175.787776 
" style="fill:none;stroke:#0000ff;stroke-linecap:square;stroke-width:1.5;"/>
   </g>
   <g id="line2d_26">
    <path clip-path="url(#pf497c1a956)" d="M 73.832727 295.488 
L 74.918528 248.37363 
L 76.00433 234.401941 
L 77.090131 236.111787 
L 78.175932 240.049856 
L 79.261733 238.995267 
L 80.347534 234.892038 
L 81.433335 246.986314 
L 82.519137 248.200918 
L 83.604938 232.764036 
L 84.690739 246.919172 
L 85.77654 240.417283 
L 86.862341 249.41546 
L 87.948142 251.325908 
L 89.033943 228.65577 
L 90.119745 245.991016 
L 91.205546 227.188226 
L 92.291347 234.758503 
L 93.377148 234.547204 
L 94.462949 241.339139 
L 95.54875 246.866581 
L 96.634552 250.992389 
L 97.720353 232.977633 
L 98.806154 240.116009 
L 99.891955 229.994949 
L 100.977756 222.221608 
L 102.063557 226.937434 
L 103.149358 227.100008 
L 104.23516 232.358025 
L 105.320961 249.751194 
L 106.406762 220.559939 
L 107.492563 230.423728 
L 108.578364 224.836011 
L 109.664165 215.92697 
L 110.749967 233.55762 
L 111.835768 225.557389 
L 112.921569 225.359503 
L 114.00737 234.445194 
L 115.093171 217.929602 
L 116.178972 231.317679 
L 117.264773 237.186853 
L 118.350575 236.518297 
L 119.436376 233.900451 
L 120.522177 223.457064 
L 121.607978 236.967072 
L 122.693779 239.399048 
L 123.77958 235.558557 
L 124.865382 225.879383 
L 125.951183 230.455248 
L 127.036984 219.571787 
L 128.122785 225.330529 
L 129.208586 240.152645 
L 130.294387 233.787327 
L 131.380189 236.481043 
L 132.46599 216.92569 
L 133.551791 234.608232 
L 134.637592 236.459799 
L 135.723393 235.153063 
L 136.809194 222.182919 
L 137.894995 213.612114 
L 138.980797 216.835237 
L 140.066598 229.192764 
L 141.152399 213.430004 
L 142.2382 228.908221 
L 143.324001 213.044882 
L 144.409802 230.314344 
L 145.495604 219.090415 
L 146.581405 239.261986 
L 147.667206 227.312944 
L 148.753007 219.619938 
L 149.838808 207.493423 
L 150.924609 203.544816 
L 152.01041 207.054345 
L 153.096212 222.858188 
L 154.182013 218.366619 
L 155.267814 215.880396 
L 156.353615 210.479539 
L 157.439416 208.78829 
L 158.525217 212.436027 
L 159.611019 222.402119 
L 160.69682 207.035517 
L 161.782621 205.612634 
L 162.868422 207.851307 
L 163.954223 223.425488 
L 165.040024 204.254989 
L 166.125825 193.05681 
L 167.211627 215.310104 
L 168.297428 204.827728 
L 169.383229 205.073547 
L 170.46903 197.992515 
L 171.554831 213.011154 
L 173.726434 209.608892 
L 174.812235 221.453837 
L 175.898036 217.003138 
L 176.983837 215.543307 
L 178.069638 215.011225 
L 179.155439 216.952065 
L 180.24124 210.81438 
L 181.327042 239.541637 
L 182.412843 235.909628 
L 183.498644 217.08579 
L 184.584445 224.296772 
L 185.670246 218.038451 
L 186.756047 223.679762 
L 187.841849 216.203642 
L 188.92765 232.069792 
L 190.013451 224.862389 
L 191.099252 235.266187 
L 192.185053 234.358551 
L 193.270854 233.159843 
L 194.356656 234.907139 
L 195.442457 224.630838 
L 196.528258 238.905271 
L 197.614059 231.995093 
L 198.69986 231.712916 
L 199.785661 222.434676 
L 200.871462 222.459609 
L 201.957264 217.450888 
L 203.043065 230.316593 
L 204.128866 217.753436 
L 205.214667 211.9995 
L 206.300468 226.752702 
L 207.386269 221.473964 
L 208.472071 211.986787 
L 209.557872 214.717121 
L 210.643673 215.030853 
L 211.729474 211.793476 
L 212.815275 207.637178 
L 213.901076 210.095048 
L 214.986877 228.764355 
L 216.072679 227.045753 
L 217.15848 216.642314 
L 218.244281 199.002011 
L 219.330082 212.047998 
L 220.415883 216.881952 
L 221.501684 217.853712 
L 222.587486 213.950129 
L 223.673287 215.263244 
L 224.759088 222.093984 
L 225.844889 216.229516 
L 226.93069 209.547338 
L 228.016491 199.450145 
L 229.102292 198.255248 
L 230.188094 190.705908 
L 231.273895 222.250573 
L 232.359696 210.879706 
L 233.445497 206.03088 
L 235.617099 226.973806 
L 236.702901 194.306024 
L 237.788702 204.245598 
L 238.874503 216.965068 
L 239.960304 226.036448 
L 241.046105 217.381813 
L 243.217708 232.144621 
L 244.303509 237.712657 
L 245.38931 234.041968 
L 246.475111 229.776277 
L 247.560912 219.908819 
L 248.646713 230.817023 
L 249.732514 232.05151 
L 250.818316 242.487141 
L 251.904117 224.000771 
L 252.989918 222.345512 
L 254.075719 230.70751 
L 255.16152 227.272039 
L 256.247321 227.262095 
L 257.333123 233.065127 
L 258.418924 222.456644 
L 260.590526 233.535276 
L 261.676327 229.882991 
L 262.762128 235.044969 
L 263.847929 223.78498 
L 264.933731 218.000642 
L 266.019532 232.010995 
L 267.105333 236.91629 
L 268.191134 226.166359 
L 269.276935 228.384221 
L 270.362736 241.506221 
L 271.448538 238.887132 
L 272.534339 227.432338 
L 273.62014 233.222852 
L 274.705941 214.436626 
L 275.791742 220.824535 
L 276.877543 215.214065 
L 277.963344 221.141926 
L 279.049146 224.658521 
L 280.134947 231.282838 
L 281.220748 234.959585 
L 282.306549 226.639573 
L 283.39235 237.589668 
L 284.478151 253.976121 
L 286.649754 244.367142 
L 287.735555 248.427783 
L 288.821356 233.327218 
L 289.907157 233.231626 
L 290.992958 223.72693 
L 292.07876 230.926281 
L 293.164561 236.218504 
L 294.250362 244.529509 
L 295.336163 221.210585 
L 296.421964 239.300952 
L 297.507765 245.072533 
L 298.593566 222.740835 
L 299.679368 222.461727 
L 300.765169 239.717075 
L 301.85097 229.584644 
L 302.936771 213.691481 
L 304.022572 239.544946 
L 305.108373 235.472933 
L 306.194175 228.32536 
L 307.279976 230.414871 
L 308.365777 230.661672 
L 309.451578 237.540583 
L 310.537379 225.183019 
L 311.62318 227.438169 
L 312.708981 247.386298 
L 313.794783 249.917527 
L 314.880584 245.820698 
L 315.966385 234.787069 
L 317.052186 239.526107 
L 318.137987 240.548218 
L 319.223788 247.683715 
L 320.30959 257.744659 
L 321.395391 248.569193 
L 322.481192 230.292594 
L 323.566993 261.720396 
L 324.652794 252.628255 
L 325.738595 239.076168 
L 326.824396 244.050922 
L 327.910198 238.187608 
L 328.995999 245.359105 
L 330.0818 240.128592 
L 331.167601 246.046988 
L 332.253402 254.759916 
L 333.339203 235.337128 
L 334.425005 250.645406 
L 335.510806 253.177627 
L 336.596607 235.22263 
L 337.682408 258.095064 
L 338.768209 264.102114 
L 339.85401 248.311554 
L 340.939811 257.509205 
L 342.025613 255.94543 
L 343.111414 254.785288 
L 344.197215 245.633516 
L 345.283016 247.008168 
L 346.368817 251.163372 
L 347.454618 253.506105 
L 348.54042 239.146322 
L 349.626221 245.529894 
L 350.712022 241.249465 
L 351.797823 245.094255 
L 352.883624 259.886213 
L 353.969425 241.26124 
L 355.055227 248.835962 
L 356.141028 243.267313 
L 357.226829 242.001096 
L 359.398431 253.774105 
L 361.570033 243.651709 
L 362.655835 251.578374 
L 363.741636 244.359231 
L 364.827437 216.060193 
L 365.913238 238.235796 
L 366.999039 237.83618 
L 368.08484 252.874892 
L 369.170642 241.301165 
L 370.256443 239.830131 
L 371.342244 248.291669 
L 372.428045 233.608485 
L 373.513846 220.452653 
L 374.599647 244.095412 
L 375.685448 247.51584 
L 376.77125 237.02763 
L 377.857051 249.812351 
L 378.942852 242.976902 
L 380.028653 237.955263 
L 381.114454 240.642613 
L 382.200255 238.332672 
L 383.286057 248.695509 
L 384.371858 241.316436 
L 385.457659 243.592505 
L 386.54346 249.097999 
L 387.629261 241.877326 
L 388.715062 247.069126 
L 389.800863 249.130899 
L 390.886665 247.499658 
L 391.972466 249.963019 
L 393.058267 230.028794 
L 394.144068 242.529397 
L 395.229869 241.679685 
L 396.31567 259.195175 
L 397.401472 260.11339 
L 398.487273 250.195259 
L 398.487273 250.195259 
" style="fill:none;stroke:#008000;stroke-dasharray:9.6,2.4,1.5,2.4;stroke-dashoffset:0;stroke-width:1.5;"/>
   </g>
   <g id="line2d_27">
    <path clip-path="url(#pf497c1a956)" d="M 73.832727 177.745869 
L 74.918528 152.709623 
L 76.00433 143.318093 
L 77.090131 138.276337 
L 78.175932 137.409983 
L 79.261733 133.811098 
L 80.347534 127.12763 
L 81.433335 129.017342 
L 82.519137 124.404817 
L 83.604938 124.228466 
L 84.690739 125.34366 
L 85.77654 116.03932 
L 86.862341 120.514911 
L 87.948142 117.748189 
L 89.033943 115.417937 
L 90.119745 114.188034 
L 91.205546 112.782429 
L 92.291347 115.104796 
L 93.377148 118.456065 
L 94.462949 122.828643 
L 95.54875 114.819093 
L 96.634552 117.891684 
L 97.720353 120.41868 
L 98.806154 117.290005 
L 99.891955 111.760386 
L 100.977756 116.60378 
L 102.063557 109.642185 
L 103.149358 115.392229 
L 104.23516 113.481431 
L 105.320961 113.308503 
L 106.406762 120.259328 
L 107.492563 117.055791 
L 108.578364 111.955711 
L 109.664165 112.51531 
L 110.749967 111.660848 
L 111.835768 113.90088 
L 112.921569 110.850814 
L 114.00737 111.386223 
L 116.178972 103.679173 
L 117.264773 118.142258 
L 118.350575 117.549444 
L 119.436376 109.993748 
L 120.522177 108.126682 
L 121.607978 111.994498 
L 122.693779 112.395839 
L 123.77958 109.014637 
L 124.865382 106.437111 
L 125.951183 107.044278 
L 127.036984 106.721939 
L 128.122785 109.048399 
L 129.208586 109.633948 
L 130.294387 101.04468 
L 131.380189 108.381759 
L 132.46599 103.450073 
L 133.551791 108.104979 
L 134.637592 116.874235 
L 135.723393 110.464577 
L 136.809194 104.884894 
L 137.894995 104.374886 
L 138.980797 98.683164 
L 140.066598 95.416362 
L 141.152399 91.372563 
L 142.2382 98.980387 
L 143.324001 99.412216 
L 144.409802 103.574079 
L 145.495604 103.803369 
L 146.581405 105.020058 
L 147.667206 90.754126 
L 148.753007 93.517908 
L 149.838808 86.702258 
L 150.924609 94.544631 
L 152.01041 94.300395 
L 153.096212 96.393505 
L 154.182013 91.472484 
L 155.267814 93.766118 
L 156.353615 81.054059 
L 157.439416 82.615815 
L 158.525217 78.093064 
L 159.611019 80.722466 
L 160.69682 76.074948 
L 161.782621 82.262422 
L 162.868422 72.653078 
L 163.954223 77.811969 
L 166.125825 76.883925 
L 167.211627 80.861905 
L 168.297428 71.894471 
L 169.383229 72.108072 
L 170.46903 78.699469 
L 171.554831 81.956536 
L 172.640632 88.759429 
L 173.726434 90.419864 
L 174.812235 88.692216 
L 175.898036 88.053225 
L 176.983837 87.950795 
L 178.069638 82.612096 
L 179.155439 84.351073 
L 180.24124 89.358756 
L 181.327042 93.474985 
L 182.412843 89.033859 
L 183.498644 94.551761 
L 184.584445 93.931187 
L 185.670246 94.996416 
L 186.756047 90.050491 
L 187.841849 93.815687 
L 188.92765 96.155757 
L 190.013451 90.261401 
L 191.099252 105.274569 
L 192.185053 102.582277 
L 193.270854 91.789123 
L 194.356656 104.809419 
L 195.442457 102.32022 
L 196.528258 97.102817 
L 197.614059 98.788583 
L 198.69986 101.080618 
L 199.785661 92.282105 
L 200.871462 89.418249 
L 201.957264 83.797497 
L 203.043065 90.82765 
L 204.128866 83.021606 
L 205.214667 86.128471 
L 206.300468 77.388921 
L 207.386269 84.25306 
L 209.557872 75.931157 
L 210.643673 84.115407 
L 211.729474 80.77272 
L 212.815275 70.139283 
L 213.901076 79.406163 
L 214.986877 82.104887 
L 217.15848 69.354707 
L 218.244281 72.42154 
L 219.330082 82.999726 
L 220.415883 77.070848 
L 221.501684 86.142048 
L 222.587486 83.848944 
L 223.673287 73.390924 
L 224.759088 78.043804 
L 225.844889 73.039815 
L 226.93069 84.029582 
L 228.016491 72.443934 
L 229.102292 69.245901 
L 230.188094 71.387967 
L 231.273895 75.230718 
L 232.359696 80.565837 
L 233.445497 83.232127 
L 234.531298 76.627665 
L 235.617099 86.390712 
L 236.702901 77.12071 
L 237.788702 89.996247 
L 238.874503 85.394332 
L 239.960304 89.955964 
L 241.046105 91.112048 
L 242.131906 86.625972 
L 244.303509 98.441718 
L 245.38931 103.25874 
L 246.475111 101.490953 
L 247.560912 93.73099 
L 248.646713 104.050224 
L 249.732514 103.21379 
L 250.818316 106.327506 
L 251.904117 108.068317 
L 252.989918 107.657814 
L 254.075719 103.347007 
L 255.16152 106.932553 
L 256.247321 101.380963 
L 257.333123 116.039284 
L 258.418924 104.659995 
L 259.504725 116.739847 
L 260.590526 111.847056 
L 261.676327 108.960139 
L 262.762128 106.47488 
L 263.847929 104.465406 
L 264.933731 104.368269 
L 266.019532 117.307183 
L 267.105333 117.132035 
L 268.191134 116.761527 
L 269.276935 115.749119 
L 270.362736 116.684783 
L 271.448538 120.25923 
L 272.534339 128.208217 
L 273.62014 132.027631 
L 274.705941 130.853083 
L 275.791742 121.1599 
L 276.877543 121.502379 
L 277.963344 134.859117 
L 279.049146 119.9848 
L 281.220748 128.126365 
L 282.306549 125.235061 
L 283.39235 123.945563 
L 284.478151 124.999583 
L 285.563953 129.674046 
L 286.649754 125.855338 
L 287.735555 127.742663 
L 288.821356 124.730176 
L 289.907157 130.97257 
L 290.992958 116.288397 
L 292.07876 128.504132 
L 293.164561 125.106419 
L 294.250362 123.821588 
L 295.336163 123.795271 
L 296.421964 123.597307 
L 297.507765 125.030177 
L 298.593566 122.833728 
L 299.679368 115.073998 
L 300.765169 120.126747 
L 301.85097 122.290246 
L 302.936771 123.298431 
L 304.022572 124.684269 
L 305.108373 131.384132 
L 306.194175 122.522423 
L 307.279976 127.874974 
L 308.365777 123.448688 
L 309.451578 122.987908 
L 310.537379 117.172987 
L 311.62318 115.94975 
L 312.708981 124.878942 
L 313.794783 127.16566 
L 315.966385 116.47508 
L 317.052186 124.863414 
L 318.137987 123.876343 
L 319.223788 128.206515 
L 320.30959 136.449579 
L 321.395391 123.076852 
L 322.481192 131.443583 
L 323.566993 131.384112 
L 324.652794 134.855235 
L 325.738595 129.900357 
L 327.910198 122.796916 
L 328.995999 128.841383 
L 330.0818 132.945964 
L 331.167601 123.749148 
L 332.253402 128.955954 
L 333.339203 126.698484 
L 334.425005 122.140292 
L 335.510806 119.979926 
L 336.596607 117.568455 
L 338.768209 129.730624 
L 339.85401 127.394674 
L 340.939811 121.711635 
L 342.025613 125.576705 
L 343.111414 131.835881 
L 344.197215 135.284579 
L 345.283016 130.10136 
L 346.368817 129.851935 
L 347.454618 127.232235 
L 348.54042 118.277685 
L 349.626221 121.372009 
L 350.712022 122.738099 
L 351.797823 128.640947 
L 352.883624 127.363678 
L 353.969425 129.240443 
L 355.055227 114.481087 
L 356.141028 118.885541 
L 357.226829 115.63818 
L 358.31263 113.060138 
L 360.484232 110.315873 
L 361.570033 101.413903 
L 362.655835 110.086608 
L 363.741636 106.515473 
L 364.827437 97.633593 
L 365.913238 102.165893 
L 366.999039 96.97635 
L 368.08484 97.720547 
L 369.170642 101.452114 
L 370.256443 102.674677 
L 371.342244 93.051279 
L 372.428045 97.372181 
L 373.513846 86.21428 
L 374.599647 91.958254 
L 375.685448 94.543844 
L 376.77125 82.978083 
L 377.857051 92.703103 
L 378.942852 98.382421 
L 380.028653 88.016018 
L 381.114454 102.89079 
L 382.200255 95.814307 
L 383.286057 107.253963 
L 384.371858 93.496802 
L 385.457659 104.610576 
L 386.54346 95.789804 
L 387.629261 77.644674 
L 388.715062 78.460098 
L 389.800863 93.811798 
L 390.886665 87.308629 
L 391.972466 89.066442 
L 393.058267 81.713604 
L 394.144068 78.536158 
L 395.229869 81.695792 
L 396.31567 88.50301 
L 397.401472 97.216296 
L 398.487273 101.380293 
L 398.487273 101.380293 
" style="fill:none;stroke:#008000;stroke-dasharray:9.6,2.4,1.5,2.4;stroke-dashoffset:0;stroke-width:1.5;"/>
   </g>
   <g id="line2d_28">
    <path clip-path="url(#pf497c1a956)" d="M 73.832727 109.434622 
L 76.00433 109.434622 
L 77.090131 87.587461 
L 78.175932 81.4591 
L 79.261733 81.4591 
L 80.347534 67.38024 
L 81.433335 59.380105 
L 96.634552 59.357787 
L 97.720353 58.832017 
L 98.806154 58.832017 
L 99.891955 57.434375 
L 100.977756 57.434375 
L 102.063557 57.28435 
L 105.320961 57.184616 
L 110.749967 57.157385 
L 317.052186 57.127048 
L 318.137987 56.966046 
L 320.30959 56.966046 
L 321.395391 56.63824 
L 330.0818 56.63824 
L 331.167601 56.305656 
L 333.339203 56.305656 
L 334.425005 56.03293 
L 335.510806 55.123986 
L 336.596607 55.121438 
L 337.682408 54.759012 
L 347.454618 54.759012 
L 348.54042 54.426485 
L 375.685448 54.419221 
L 376.77125 53.58751 
L 398.487273 53.568 
L 398.487273 53.568 
" style="fill:none;stroke:#ff0000;stroke-linecap:square;stroke-width:1.5;"/>
   </g>
   <g id="patch_3">
    <path d="M 57.6 307.584 
L 57.6 41.472 
" style="fill:none;stroke:#000000;stroke-linecap:square;stroke-linejoin:miter;stroke-width:0.8;"/>
   </g>
   <g id="patch_4">
    <path d="M 414.72 307.584 
L 414.72 41.472 
" style="fill:none;stroke:#000000;stroke-linecap:square;stroke-linejoin:miter;stroke-width:0.8;"/>
   </g>
   <g id="patch_5">
    <path d="M 57.6 307.584 
L 414.72 307.584 
" style="fill:none;stroke:#000000;stroke-linecap:square;stroke-linejoin:miter;stroke-width:0.8;"/>
   </g>
   <g id="patch_6">
    <path d="M 57.6 41.472 
L 414.72 41.472 
" style="fill:none;stroke:#000000;stroke-linecap:square;stroke-linejoin:miter;stroke-width:0.8;"/>
   </g>
   <g id="text_15">
    <!-- Population's average and best fitness -->
    <defs>
     <path d="M 19.671875 64.796875 
L 19.671875 37.40625 
L 32.078125 37.40625 
Q 38.96875 37.40625 42.71875 40.96875 
Q 46.484375 44.53125 46.484375 51.125 
Q 46.484375 57.671875 42.71875 61.234375 
Q 38.96875 64.796875 32.078125 64.796875 
z
M 9.8125 72.90625 
L 32.078125 72.90625 
Q 44.34375 72.90625 50.609375 67.359375 
Q 56.890625 61.8125 56.890625 51.125 
Q 56.890625 40.328125 50.609375 34.8125 
Q 44.34375 29.296875 32.078125 29.296875 
L 19.671875 29.296875 
L 19.671875 0 
L 9.8125 0 
z
" id="DejaVuSans-50"/>
     <path d="M 18.109375 8.203125 
L 18.109375 -20.796875 
L 9.078125 -20.796875 
L 9.078125 54.6875 
L 18.109375 54.6875 
L 18.109375 46.390625 
Q 20.953125 51.265625 25.265625 53.625 
Q 29.59375 56 35.59375 56 
Q 45.5625 56 51.78125 48.09375 
Q 58.015625 40.1875 58.015625 27.296875 
Q 58.015625 14.40625 51.78125 6.484375 
Q 45.5625 -1.421875 35.59375 -1.421875 
Q 29.59375 -1.421875 25.265625 0.953125 
Q 20.953125 3.328125 18.109375 8.203125 
z
M 48.6875 27.296875 
Q 48.6875 37.203125 44.609375 42.84375 
Q 40.53125 48.484375 33.40625 48.484375 
Q 26.265625 48.484375 22.1875 42.84375 
Q 18.109375 37.203125 18.109375 27.296875 
Q 18.109375 17.390625 22.1875 11.75 
Q 26.265625 6.109375 33.40625 6.109375 
Q 40.53125 6.109375 44.609375 11.75 
Q 48.6875 17.390625 48.6875 27.296875 
z
" id="DejaVuSans-70"/>
     <path d="M 8.5 21.578125 
L 8.5 54.6875 
L 17.484375 54.6875 
L 17.484375 21.921875 
Q 17.484375 14.15625 20.5 10.265625 
Q 23.53125 6.390625 29.59375 6.390625 
Q 36.859375 6.390625 41.078125 11.03125 
Q 45.3125 15.671875 45.3125 23.6875 
L 45.3125 54.6875 
L 54.296875 54.6875 
L 54.296875 0 
L 45.3125 0 
L 45.3125 8.40625 
Q 42.046875 3.421875 37.71875 1 
Q 33.40625 -1.421875 27.6875 -1.421875 
Q 18.265625 -1.421875 13.375 4.4375 
Q 8.5 10.296875 8.5 21.578125 
z
M 31.109375 56 
z
" id="DejaVuSans-75"/>
     <path d="M 9.421875 75.984375 
L 18.40625 75.984375 
L 18.40625 0 
L 9.421875 0 
z
" id="DejaVuSans-6c"/>
     <path d="M 17.921875 72.90625 
L 17.921875 45.796875 
L 9.625 45.796875 
L 9.625 72.90625 
z
" id="DejaVuSans-27"/>
     <path id="DejaVuSans-20"/>
     <path d="M 2.984375 54.6875 
L 12.5 54.6875 
L 29.59375 8.796875 
L 46.6875 54.6875 
L 56.203125 54.6875 
L 35.6875 0 
L 23.484375 0 
z
" id="DejaVuSans-76"/>
     <path d="M 45.40625 27.984375 
Q 45.40625 37.75 41.375 43.109375 
Q 37.359375 48.484375 30.078125 48.484375 
Q 22.859375 48.484375 18.828125 43.109375 
Q 14.796875 37.75 14.796875 27.984375 
Q 14.796875 18.265625 18.828125 12.890625 
Q 22.859375 7.515625 30.078125 7.515625 
Q 37.359375 7.515625 41.375 12.890625 
Q 45.40625 18.265625 45.40625 27.984375 
z
M 54.390625 6.78125 
Q 54.390625 -7.171875 48.1875 -13.984375 
Q 42 -20.796875 29.203125 -20.796875 
Q 24.46875 -20.796875 20.265625 -20.09375 
Q 16.0625 -19.390625 12.109375 -17.921875 
L 12.109375 -9.1875 
Q 16.0625 -11.328125 19.921875 -12.34375 
Q 23.78125 -13.375 27.78125 -13.375 
Q 36.625 -13.375 41.015625 -8.765625 
Q 45.40625 -4.15625 45.40625 5.171875 
L 45.40625 9.625 
Q 42.625 4.78125 38.28125 2.390625 
Q 33.9375 0 27.875 0 
Q 17.828125 0 11.671875 7.65625 
Q 5.515625 15.328125 5.515625 27.984375 
Q 5.515625 40.671875 11.671875 48.328125 
Q 17.828125 56 27.875 56 
Q 33.9375 56 38.28125 53.609375 
Q 42.625 51.21875 45.40625 46.390625 
L 45.40625 54.6875 
L 54.390625 54.6875 
z
" id="DejaVuSans-67"/>
     <path d="M 45.40625 46.390625 
L 45.40625 75.984375 
L 54.390625 75.984375 
L 54.390625 0 
L 45.40625 0 
L 45.40625 8.203125 
Q 42.578125 3.328125 38.25 0.953125 
Q 33.9375 -1.421875 27.875 -1.421875 
Q 17.96875 -1.421875 11.734375 6.484375 
Q 5.515625 14.40625 5.515625 27.296875 
Q 5.515625 40.1875 11.734375 48.09375 
Q 17.96875 56 27.875 56 
Q 33.9375 56 38.25 53.625 
Q 42.578125 51.265625 45.40625 46.390625 
z
M 14.796875 27.296875 
Q 14.796875 17.390625 18.875 11.75 
Q 22.953125 6.109375 30.078125 6.109375 
Q 37.203125 6.109375 41.296875 11.75 
Q 45.40625 17.390625 45.40625 27.296875 
Q 45.40625 37.203125 41.296875 42.84375 
Q 37.203125 48.484375 30.078125 48.484375 
Q 22.953125 48.484375 18.875 42.84375 
Q 14.796875 37.203125 14.796875 27.296875 
z
" id="DejaVuSans-64"/>
     <path d="M 48.6875 27.296875 
Q 48.6875 37.203125 44.609375 42.84375 
Q 40.53125 48.484375 33.40625 48.484375 
Q 26.265625 48.484375 22.1875 42.84375 
Q 18.109375 37.203125 18.109375 27.296875 
Q 18.109375 17.390625 22.1875 11.75 
Q 26.265625 6.109375 33.40625 6.109375 
Q 40.53125 6.109375 44.609375 11.75 
Q 48.6875 17.390625 48.6875 27.296875 
z
M 18.109375 46.390625 
Q 20.953125 51.265625 25.265625 53.625 
Q 29.59375 56 35.59375 56 
Q 45.5625 56 51.78125 48.09375 
Q 58.015625 40.1875 58.015625 27.296875 
Q 58.015625 14.40625 51.78125 6.484375 
Q 45.5625 -1.421875 35.59375 -1.421875 
Q 29.59375 -1.421875 25.265625 0.953125 
Q 20.953125 3.328125 18.109375 8.203125 
L 18.109375 0 
L 9.078125 0 
L 9.078125 75.984375 
L 18.109375 75.984375 
z
" id="DejaVuSans-62"/>
     <path d="M 37.109375 75.984375 
L 37.109375 68.5 
L 28.515625 68.5 
Q 23.6875 68.5 21.796875 66.546875 
Q 19.921875 64.59375 19.921875 59.515625 
L 19.921875 54.6875 
L 34.71875 54.6875 
L 34.71875 47.703125 
L 19.921875 47.703125 
L 19.921875 0 
L 10.890625 0 
L 10.890625 47.703125 
L 2.296875 47.703125 
L 2.296875 54.6875 
L 10.890625 54.6875 
L 10.890625 58.5 
Q 10.890625 67.625 15.140625 71.796875 
Q 19.390625 75.984375 28.609375 75.984375 
z
" id="DejaVuSans-66"/>
    </defs>
    <g transform="translate(123.315 35.472)scale(0.12 -0.12)">
     <use xlink:href="#DejaVuSans-50"/>
     <use x="60.255859" xlink:href="#DejaVuSans-6f"/>
     <use x="121.4375" xlink:href="#DejaVuSans-70"/>
     <use x="184.914062" xlink:href="#DejaVuSans-75"/>
     <use x="248.292969" xlink:href="#DejaVuSans-6c"/>
     <use x="276.076172" xlink:href="#DejaVuSans-61"/>
     <use x="337.355469" xlink:href="#DejaVuSans-74"/>
     <use x="376.564453" xlink:href="#DejaVuSans-69"/>
     <use x="404.347656" xlink:href="#DejaVuSans-6f"/>
     <use x="465.529297" xlink:href="#DejaVuSans-6e"/>
     <use x="528.908203" xlink:href="#DejaVuSans-27"/>
     <use x="556.398438" xlink:href="#DejaVuSans-73"/>
     <use x="608.498047" xlink:href="#DejaVuSans-20"/>
     <use x="640.285156" xlink:href="#DejaVuSans-61"/>
     <use x="701.564453" xlink:href="#DejaVuSans-76"/>
     <use x="760.744141" xlink:href="#DejaVuSans-65"/>
     <use x="822.267578" xlink:href="#DejaVuSans-72"/>
     <use x="863.380859" xlink:href="#DejaVuSans-61"/>
     <use x="924.660156" xlink:href="#DejaVuSans-67"/>
     <use x="988.136719" xlink:href="#DejaVuSans-65"/>
     <use x="1049.660156" xlink:href="#DejaVuSans-20"/>
     <use x="1081.447266" xlink:href="#DejaVuSans-61"/>
     <use x="1142.726562" xlink:href="#DejaVuSans-6e"/>
     <use x="1206.105469" xlink:href="#DejaVuSans-64"/>
     <use x="1269.582031" xlink:href="#DejaVuSans-20"/>
     <use x="1301.369141" xlink:href="#DejaVuSans-62"/>
     <use x="1364.845703" xlink:href="#DejaVuSans-65"/>
     <use x="1426.369141" xlink:href="#DejaVuSans-73"/>
     <use x="1478.46875" xlink:href="#DejaVuSans-74"/>
     <use x="1517.677734" xlink:href="#DejaVuSans-20"/>
     <use x="1549.464844" xlink:href="#DejaVuSans-66"/>
     <use x="1584.669922" xlink:href="#DejaVuSans-69"/>
     <use x="1612.453125" xlink:href="#DejaVuSans-74"/>
     <use x="1651.662109" xlink:href="#DejaVuSans-6e"/>
     <use x="1715.041016" xlink:href="#DejaVuSans-65"/>
     <use x="1776.564453" xlink:href="#DejaVuSans-73"/>
     <use x="1828.664062" xlink:href="#DejaVuSans-73"/>
    </g>
   </g>
   <g id="legend_1">
    <g id="patch_7">
     <path d="M 199.689687 302.584 
L 272.630313 302.584 
Q 274.630313 302.584 274.630313 300.584 
L 274.630313 242.8715 
Q 274.630313 240.8715 272.630313 240.8715 
L 199.689687 240.8715 
Q 197.689687 240.8715 197.689687 242.8715 
L 197.689687 300.584 
Q 197.689687 302.584 199.689687 302.584 
z
" style="fill:#ffffff;opacity:0.8;stroke:#cccccc;stroke-linejoin:miter;"/>
    </g>
    <g id="line2d_29">
     <path d="M 201.689687 248.969937 
L 221.689687 248.969937 
" style="fill:none;stroke:#0000ff;stroke-linecap:square;stroke-width:1.5;"/>
    </g>
    <g id="line2d_30"/>
    <g id="text_16">
     <!-- average -->
     <g transform="translate(229.689687 252.469937)scale(0.1 -0.1)">
      <use xlink:href="#DejaVuSans-61"/>
      <use x="61.279297" xlink:href="#DejaVuSans-76"/>
      <use x="120.458984" xlink:href="#DejaVuSans-65"/>
      <use x="181.982422" xlink:href="#DejaVuSans-72"/>
      <use x="223.095703" xlink:href="#DejaVuSans-61"/>
      <use x="284.375" xlink:href="#DejaVuSans-67"/>
      <use x="347.851562" xlink:href="#DejaVuSans-65"/>
     </g>
    </g>
    <g id="line2d_31">
     <path d="M 201.689687 263.648062 
L 221.689687 263.648062 
" style="fill:none;stroke:#008000;stroke-dasharray:9.6,2.4,1.5,2.4;stroke-dashoffset:0;stroke-width:1.5;"/>
    </g>
    <g id="line2d_32"/>
    <g id="text_17">
     <!-- -1 sd -->
     <defs>
      <path d="M 4.890625 31.390625 
L 31.203125 31.390625 
L 31.203125 23.390625 
L 4.890625 23.390625 
z
" id="DejaVuSans-2d"/>
     </defs>
     <g transform="translate(229.689687 267.148062)scale(0.1 -0.1)">
      <use xlink:href="#DejaVuSans-2d"/>
      <use x="36.083984" xlink:href="#DejaVuSans-31"/>
      <use x="99.707031" xlink:href="#DejaVuSans-20"/>
      <use x="131.494141" xlink:href="#DejaVuSans-73"/>
      <use x="183.59375" xlink:href="#DejaVuSans-64"/>
     </g>
    </g>
    <g id="line2d_33">
     <path d="M 201.689687 278.326187 
L 221.689687 278.326187 
" style="fill:none;stroke:#008000;stroke-dasharray:9.6,2.4,1.5,2.4;stroke-dashoffset:0;stroke-width:1.5;"/>
    </g>
    <g id="line2d_34"/>
    <g id="text_18">
     <!-- +1 sd -->
     <defs>
      <path d="M 46 62.703125 
L 46 35.5 
L 73.1875 35.5 
L 73.1875 27.203125 
L 46 27.203125 
L 46 0 
L 37.796875 0 
L 37.796875 27.203125 
L 10.59375 27.203125 
L 10.59375 35.5 
L 37.796875 35.5 
L 37.796875 62.703125 
z
" id="DejaVuSans-2b"/>
     </defs>
     <g transform="translate(229.689687 281.826187)scale(0.1 -0.1)">
      <use xlink:href="#DejaVuSans-2b"/>
      <use x="83.789062" xlink:href="#DejaVuSans-31"/>
      <use x="147.412109" xlink:href="#DejaVuSans-20"/>
      <use x="179.199219" xlink:href="#DejaVuSans-73"/>
      <use x="231.298828" xlink:href="#DejaVuSans-64"/>
     </g>
    </g>
    <g id="line2d_35">
     <path d="M 201.689687 293.004312 
L 221.689687 293.004312 
" style="fill:none;stroke:#ff0000;stroke-linecap:square;stroke-width:1.5;"/>
    </g>
    <g id="line2d_36"/>
    <g id="text_19">
     <!-- best -->
     <g transform="translate(229.689687 296.504312)scale(0.1 -0.1)">
      <use xlink:href="#DejaVuSans-62"/>
      <use x="63.476562" xlink:href="#DejaVuSans-65"/>
      <use x="125" xlink:href="#DejaVuSans-73"/>
      <use x="177.099609" xlink:href="#DejaVuSans-74"/>
     </g>
    </g>
   </g>
  </g>
 </g>
 <defs>
  <clipPath id="pf497c1a956">
   <rect height="266.112" width="357.12" x="57.6" y="41.472"/>
  </clipPath>
 </defs>
</svg>
