<?xml version="1.0" encoding="UTF-8" standalone="no"?>
<!DOCTYPE svg PUBLIC "-//W3C//DTD SVG 1.1//EN"
 "http://www.w3.org/Graphics/SVG/1.1/DTD/svg11.dtd">
<!-- Generated by graphviz version 2.36.0 (20140111.2315)
 -->
<!-- Title: %3 Pages: 1 -->
<svg width="178pt" height="270pt"
 viewBox="0.00 0.00 177.52 270.00" xmlns="http://www.w3.org/2000/svg" xmlns:xlink="http://www.w3.org/1999/xlink">
<g id="graph0" class="graph" transform="scale(1 1) rotate(0) translate(4 266)">
<title>%3</title>
<polygon fill="white" stroke="none" points="-4,4 -4,-266 173.523,-266 173.523,4 -4,4"/>
<!-- A -->
<g id="node1" class="node"><title>A</title>
<polygon fill="lightgray" stroke="black" points="126.773,-262 104.273,-262 104.273,-244 126.773,-244 126.773,-262"/>
<text text-anchor="middle" x="115.523" y="-250.8" font-family="Times,serif" font-size="9.00">A</text>
</g>
<!-- 1 -->
<g id="node6" class="node"><title>1</title>
<ellipse fill="white" stroke="black" cx="115.523" cy="-193" rx="14.2796" ry="14.7"/>
<text text-anchor="middle" x="115.523" y="-190.8" font-family="Times,serif" font-size="9.00">1</text>
</g>
<!-- A&#45;&gt;1 -->
<g id="edge2" class="edge"><title>A&#45;&gt;1</title>
<path fill="none" stroke="green" stroke-width="0.895016" d="M115.523,-243.935C115.523,-237.313 115.523,-227.572 115.523,-218.448"/>
<polygon fill="green" stroke="green" stroke-width="0.895016" points="119.023,-218.244 115.523,-208.244 112.023,-218.244 119.023,-218.244"/>
</g>
<!-- B -->
<g id="node2" class="node"><title>B</title>
<polygon fill="lightgray" stroke="black" points="40.7727,-262 18.2727,-262 18.2727,-244 40.7727,-244 40.7727,-262"/>
<text text-anchor="middle" x="29.5227" y="-250.8" font-family="Times,serif" font-size="9.00">B</text>
</g>
<!-- B&#45;&gt;1 -->
<g id="edge4" class="edge"><title>B&#45;&gt;1</title>
<path fill="none" stroke="green" stroke-width="0.75479" d="M41.121,-244.178C54.9701,-234.838 78.3744,-219.053 95.2391,-207.68"/>
<polygon fill="green" stroke="green" stroke-width="0.75479" points="97.4997,-210.377 103.833,-201.883 93.5857,-204.573 97.4997,-210.377"/>
</g>
<!-- 3 -->
<g id="node8" class="node"><title>3</title>
<ellipse fill="white" stroke="black" cx="37.5227" cy="-15" rx="14.2796" ry="14.7"/>
<text text-anchor="middle" x="37.5227" y="-12.8" font-family="Times,serif" font-size="9.00">3</text>
</g>
<!-- B&#45;&gt;3 -->
<g id="edge3" class="edge"><title>B&#45;&gt;3</title>
<path fill="none" stroke="red" stroke-width="0.211167" d="M23.3802,-243.769C17.4777,-235.305 8.96267,-221.49 5.52268,-208 -2.03913,-178.345 -3.16336,-128.873 13.5227,-66 16.1786,-55.9925 20.8378,-45.5703 25.3488,-36.8476"/>
<polygon fill="red" stroke="red" stroke-width="0.211167" points="28.5492,-38.2891 30.2641,-27.834 22.4036,-34.9378 28.5492,-38.2891"/>
</g>
<!-- 4 -->
<g id="node9" class="node"><title>4</title>
<ellipse fill="white" stroke="black" cx="29.5227" cy="-193" rx="14.2796" ry="14.7"/>
<text text-anchor="middle" x="29.5227" y="-190.8" font-family="Times,serif" font-size="9.00">4</text>
</g>
<!-- B&#45;&gt;4 -->
<g id="edge9" class="edge"><title>B&#45;&gt;4</title>
<path fill="none" stroke="green" stroke-width="0.317734" d="M29.5227,-243.935C29.5227,-237.313 29.5227,-227.572 29.5227,-218.448"/>
<polygon fill="green" stroke="green" stroke-width="0.317734" points="33.0228,-218.244 29.5227,-208.244 26.0228,-218.244 33.0228,-218.244"/>
</g>
<!-- C -->
<g id="node3" class="node"><title>C</title>
<polygon fill="lightgray" stroke="black" points="84.7727,-262 62.2727,-262 62.2727,-244 84.7727,-244 84.7727,-262"/>
<text text-anchor="middle" x="73.5227" y="-250.8" font-family="Times,serif" font-size="9.00">C</text>
</g>
<!-- C&#45;&gt;1 -->
<g id="edge6" class="edge"><title>C&#45;&gt;1</title>
<path fill="none" stroke="green" stroke-width="0.773534" d="M79.3626,-243.935C84.9976,-236.154 93.7509,-224.066 101.234,-213.732"/>
<polygon fill="green" stroke="green" stroke-width="0.773534" points="104.094,-215.75 107.124,-205.598 98.4244,-211.644 104.094,-215.75"/>
</g>
<!-- 2 -->
<g id="node7" class="node"><title>2</title>
<ellipse fill="white" stroke="black" cx="37.5227" cy="-104" rx="14.2796" ry="14.7"/>
<text text-anchor="middle" x="37.5227" y="-101.8" font-family="Times,serif" font-size="9.00">2</text>
</g>
<!-- C&#45;&gt;2 -->
<g id="edge7" class="edge"><title>C&#45;&gt;2</title>
<path fill="none" stroke="red" stroke-width="0.289619" d="M71.484,-243.675C66.1154,-221.753 51.4385,-161.823 43.2452,-128.367"/>
<polygon fill="red" stroke="red" stroke-width="0.289619" points="46.6112,-127.397 40.8329,-118.517 39.8121,-129.062 46.6112,-127.397"/>
</g>
<!-- &#45;4 -->
<g id="node4" class="node"><title>&#45;4</title>
<polygon fill="lightgray" stroke="black" points="169.523,-262 145.523,-262 145.523,-244 169.523,-244 169.523,-262"/>
<text text-anchor="middle" x="157.523" y="-250.8" font-family="Times,serif" font-size="9.00">&#45;4</text>
</g>
<!-- A XOR B -->
<g id="node5" class="node"><title>A XOR B</title>
<ellipse fill="lightblue" stroke="black" cx="115.523" cy="-104" rx="37.2152" ry="37.4533"/>
<text text-anchor="middle" x="115.523" y="-101.8" font-family="Times,serif" font-size="9.00">A XOR B</text>
</g>
<!-- &#45;4&#45;&gt;A XOR B -->
<g id="edge8" class="edge"><title>&#45;4&#45;&gt;A XOR B</title>
<path fill="none" stroke="green" stroke-width="0.337373" d="M155.558,-243.748C152.259,-230.037 145.3,-201.722 138.523,-178 135.868,-168.707 132.865,-158.802 129.926,-149.383"/>
<polygon fill="green" stroke="green" stroke-width="0.337373" points="133.247,-148.275 126.904,-139.788 126.57,-150.378 133.247,-148.275"/>
</g>
<!-- &#45;4&#45;&gt;1 -->
<g id="edge1" class="edge"><title>&#45;4&#45;&gt;1</title>
<path fill="none" stroke="green" stroke-width="1.07455" d="M151.683,-243.935C146.048,-236.154 137.294,-224.066 129.812,-213.732"/>
<polygon fill="green" stroke="green" stroke-width="1.07455" points="132.621,-211.644 123.921,-205.598 126.951,-215.75 132.621,-211.644"/>
</g>
<!-- A XOR B&#45;&gt;3 -->
<g id="edge12" class="edge"><title>A XOR B&#45;&gt;3</title>
<path fill="none" stroke="green" stroke-width="0.428755" d="M90.843,-75.4727C78.8035,-62.044 64.6497,-46.2571 53.9513,-34.3242"/>
<polygon fill="green" stroke="green" stroke-width="0.428755" points="56.4467,-31.8645 47.1652,-26.7552 51.2347,-36.5373 56.4467,-31.8645"/>
</g>
<!-- 1&#45;&gt;A XOR B -->
<g id="edge11" class="edge"><title>1&#45;&gt;A XOR B</title>
<path fill="none" stroke="red" stroke-width="0.732287" d="M115.523,-178.022C115.523,-170.826 115.523,-161.589 115.523,-152.122"/>
<polygon fill="red" stroke="red" stroke-width="0.732287" points="119.023,-151.845 115.523,-141.845 112.023,-151.845 119.023,-151.845"/>
</g>
<!-- 2&#45;&gt;3 -->
<g id="edge10" class="edge"><title>2&#45;&gt;3</title>
<path fill="none" stroke="red" stroke-width="0.189633" d="M37.5227,-89.0219C37.5227,-75.8309 37.5227,-55.7822 37.5227,-40.0274"/>
<polygon fill="red" stroke="red" stroke-width="0.189633" points="41.0228,-39.9433 37.5227,-29.9434 34.0228,-39.9434 41.0228,-39.9433"/>
</g>
<!-- 4&#45;&gt;2 -->
<g id="edge5" class="edge"><title>4&#45;&gt;2</title>
<path fill="none" stroke="green" stroke-width="0.264525" d="M30.808,-178.022C32.021,-164.831 33.8645,-144.782 35.3133,-129.027"/>
<polygon fill="green" stroke="green" stroke-width="0.264525" points="38.8101,-129.222 36.2405,-118.943 31.8395,-128.581 38.8101,-129.222"/>
</g>
</g>
</svg>
