<?xml version="1.0" encoding="UTF-8" standalone="no"?>
<!DOCTYPE svg PUBLIC "-//W3C//DTD SVG 1.1//EN"
 "http://www.w3.org/Graphics/SVG/1.1/DTD/svg11.dtd">
<!-- Generated by graphviz version 2.36.0 (20140111.2315)
 -->
<!-- Title: %3 Pages: 1 -->
<svg width="284pt" height="92pt"
 viewBox="0.00 0.00 284.00 92.00" xmlns="http://www.w3.org/2000/svg" xmlns:xlink="http://www.w3.org/1999/xlink">
<g id="graph0" class="graph" transform="scale(1 1) rotate(0) translate(4 88)">
<title>%3</title>
<polygon fill="white" stroke="none" points="-4,4 -4,-88 280,-88 280,4 -4,4"/>
<!-- &#45;1 -->
<g id="node1" class="node"><title>&#45;1</title>
<polygon fill="lightgray" stroke="black" points="66,-84 42,-84 42,-66 66,-66 66,-84"/>
<text text-anchor="middle" x="54" y="-72.8" font-family="Times,serif" font-size="9.00">&#45;1</text>
</g>
<!-- 0 -->
<g id="node8" class="node"><title>0</title>
<ellipse fill="lightblue" stroke="black" cx="162" cy="-15" rx="14.2796" ry="14.7"/>
<text text-anchor="middle" x="162" y="-12.8" font-family="Times,serif" font-size="9.00">0</text>
</g>
<!-- &#45;1&#45;&gt;0 -->
<g id="edge1" class="edge"><title>&#45;1&#45;&gt;0</title>
<path fill="none" stroke="red" stroke-width="0.489061" d="M66.1429,-67.6745C82.3549,-59.2039 111.939,-43.6576 137,-30 138.155,-29.3707 139.338,-28.722 140.531,-28.0648"/>
<polygon fill="red" stroke="red" stroke-width="0.489061" points="142.533,-30.9561 149.569,-23.0353 139.129,-24.8392 142.533,-30.9561"/>
</g>
<!-- 1 -->
<g id="node9" class="node"><title>1</title>
<ellipse fill="lightblue" stroke="black" cx="210" cy="-15" rx="14.2796" ry="14.7"/>
<text text-anchor="middle" x="210" y="-12.8" font-family="Times,serif" font-size="9.00">1</text>
</g>
<!-- &#45;1&#45;&gt;1 -->
<g id="edge17" class="edge"><title>&#45;1&#45;&gt;1</title>
<path fill="none" stroke="red" stroke-width="0.580368" d="M66.4007,-69.1637C69.2184,-68.0961 72.2048,-66.9892 75,-66 123.493,-48.8388 137.893,-50.6643 185,-30 186.367,-29.4005 187.756,-28.7493 189.145,-28.0666"/>
<polygon fill="red" stroke="red" stroke-width="0.580368" points="190.861,-31.1182 198.035,-23.3222 187.565,-24.9426 190.861,-31.1182"/>
</g>
<!-- 2 -->
<g id="node10" class="node"><title>2</title>
<ellipse fill="lightblue" stroke="black" cx="66" cy="-15" rx="14.2796" ry="14.7"/>
<text text-anchor="middle" x="66" y="-12.8" font-family="Times,serif" font-size="9.00">2</text>
</g>
<!-- &#45;1&#45;&gt;2 -->
<g id="edge14" class="edge"><title>&#45;1&#45;&gt;2</title>
<path fill="none" stroke="green" stroke-width="0.150818" d="M55.6685,-65.9353C57.0723,-59.1507 59.1532,-49.0926 61.0804,-39.7779"/>
<polygon fill="green" stroke="green" stroke-width="0.150818" points="64.5479,-40.2929 63.1467,-29.7912 57.6931,-38.8746 64.5479,-40.2929"/>
</g>
<!-- 3 -->
<g id="node11" class="node"><title>3</title>
<ellipse fill="lightblue" stroke="black" cx="114" cy="-15" rx="14.2796" ry="14.7"/>
<text text-anchor="middle" x="114" y="-12.8" font-family="Times,serif" font-size="9.00">3</text>
</g>
<!-- &#45;1&#45;&gt;3 -->
<g id="edge22" class="edge"><title>&#45;1&#45;&gt;3</title>
<path fill="none" stroke="green" stroke-width="0.111467" d="M62.3427,-65.9353C71.1333,-57.4378 85.236,-43.8052 96.4867,-32.9295"/>
<polygon fill="green" stroke="green" stroke-width="0.111467" points="98.9624,-35.4043 103.72,-25.9376 94.0972,-30.3714 98.9624,-35.4043"/>
</g>
<!-- &#45;2 -->
<g id="node2" class="node"><title>&#45;2</title>
<polygon fill="lightgray" stroke="black" points="108,-84 84,-84 84,-66 108,-66 108,-84"/>
<text text-anchor="middle" x="96" y="-72.8" font-family="Times,serif" font-size="9.00">&#45;2</text>
</g>
<!-- &#45;2&#45;&gt;0 -->
<g id="edge6" class="edge"><title>&#45;2&#45;&gt;0</title>
<path fill="none" stroke="green" stroke-width="0.179978" d="M105.177,-65.9353C115.056,-57.2539 131.034,-43.2129 143.534,-32.2276"/>
<polygon fill="green" stroke="green" stroke-width="0.179978" points="145.946,-34.7672 151.148,-25.5369 141.326,-29.509 145.946,-34.7672"/>
</g>
<!-- &#45;2&#45;&gt;1 -->
<g id="edge7" class="edge"><title>&#45;2&#45;&gt;1</title>
<path fill="none" stroke="red" stroke-width="0.314624" d="M108.192,-68.2172C125.43,-59.9855 157.855,-44.2987 185,-30 186.164,-29.3871 187.353,-28.7515 188.552,-28.1043"/>
<polygon fill="red" stroke="red" stroke-width="0.314624" points="190.544,-31.0026 197.607,-23.1054 187.161,-24.8744 190.544,-31.0026"/>
</g>
<!-- &#45;2&#45;&gt;2 -->
<g id="edge16" class="edge"><title>&#45;2&#45;&gt;2</title>
<path fill="none" stroke="red" stroke-width="0.239853" d="M91.8286,-65.9353C88.022,-58.5759 82.2231,-47.3647 77.0837,-37.4286"/>
<polygon fill="red" stroke="red" stroke-width="0.239853" points="80.148,-35.7344 72.445,-28.4603 73.9305,-38.9504 80.148,-35.7344"/>
</g>
<!-- &#45;2&#45;&gt;3 -->
<g id="edge25" class="edge"><title>&#45;2&#45;&gt;3</title>
<path fill="none" stroke="green" stroke-width="0.144416" d="M98.5028,-65.9353C100.659,-58.9863 103.882,-48.6033 106.83,-39.1022"/>
<polygon fill="green" stroke="green" stroke-width="0.144416" points="110.238,-39.9308 109.859,-29.3428 103.552,-37.856 110.238,-39.9308"/>
</g>
<!-- &#45;3 -->
<g id="node3" class="node"><title>&#45;3</title>
<polygon fill="lightgray" stroke="black" points="150,-84 126,-84 126,-66 150,-66 150,-84"/>
<text text-anchor="middle" x="138" y="-72.8" font-family="Times,serif" font-size="9.00">&#45;3</text>
</g>
<!-- &#45;3&#45;&gt;0 -->
<g id="edge23" class="edge"><title>&#45;3&#45;&gt;0</title>
<path fill="none" stroke="green" stroke-width="0.253433" d="M141.337,-65.9353C144.281,-58.82 148.715,-48.1043 152.722,-38.4215"/>
<polygon fill="green" stroke="green" stroke-width="0.253433" points="156.073,-39.4775 156.662,-28.8991 149.605,-36.801 156.073,-39.4775"/>
</g>
<!-- &#45;3&#45;&gt;1 -->
<g id="edge18" class="edge"><title>&#45;3&#45;&gt;1</title>
<path fill="none" stroke="green" stroke-width="0.119552" d="M148.011,-65.9353C159.019,-57.0682 176.968,-42.6095 190.726,-31.5266"/>
<polygon fill="green" stroke="green" stroke-width="0.119552" points="193.059,-34.1413 198.651,-25.1423 188.668,-28.69 193.059,-34.1413"/>
</g>
<!-- &#45;3&#45;&gt;2 -->
<g id="edge11" class="edge"><title>&#45;3&#45;&gt;2</title>
<path fill="none" stroke="green" stroke-width="0.106215" d="M127.989,-65.9353C116.981,-57.0682 99.0325,-42.6095 85.2743,-31.5266"/>
<polygon fill="green" stroke="green" stroke-width="0.106215" points="87.3323,-28.69 77.349,-25.1423 82.9409,-34.1413 87.3323,-28.69"/>
</g>
<!-- &#45;3&#45;&gt;3 -->
<g id="edge5" class="edge"><title>&#45;3&#45;&gt;3</title>
<path fill="none" stroke="red" stroke-width="0.11654" d="M134.663,-65.9353C131.719,-58.82 127.285,-48.1043 123.278,-38.4215"/>
<polygon fill="red" stroke="red" stroke-width="0.11654" points="126.395,-36.801 119.338,-28.8991 119.927,-39.4775 126.395,-36.801"/>
</g>
<!-- &#45;4 -->
<g id="node4" class="node"><title>&#45;4</title>
<polygon fill="lightgray" stroke="black" points="192,-84 168,-84 168,-66 192,-66 192,-84"/>
<text text-anchor="middle" x="180" y="-72.8" font-family="Times,serif" font-size="9.00">&#45;4</text>
</g>
<!-- &#45;4&#45;&gt;0 -->
<g id="edge19" class="edge"><title>&#45;4&#45;&gt;0</title>
<path fill="none" stroke="green" stroke-width="0.231744" d="M177.497,-65.9353C175.341,-58.9863 172.118,-48.6033 169.17,-39.1022"/>
<polygon fill="green" stroke="green" stroke-width="0.231744" points="172.448,-37.856 166.141,-29.3428 165.762,-39.9308 172.448,-37.856"/>
</g>
<!-- &#45;4&#45;&gt;1 -->
<g id="edge26" class="edge"><title>&#45;4&#45;&gt;1</title>
<path fill="none" stroke="red" stroke-width="0.309616" d="M184.171,-65.9353C187.978,-58.5759 193.777,-47.3647 198.916,-37.4286"/>
<polygon fill="red" stroke="red" stroke-width="0.309616" points="202.07,-38.9504 203.555,-28.4603 195.852,-35.7344 202.07,-38.9504"/>
</g>
<!-- &#45;4&#45;&gt;2 -->
<g id="edge3" class="edge"><title>&#45;4&#45;&gt;2</title>
<path fill="none" stroke="red" stroke-width="0.273931" d="M167.921,-68.4396C150.514,-60.3489 117.449,-44.69 90,-30 89.0218,-29.4765 88.0257,-28.934 87.0227,-28.3803"/>
<polygon fill="red" stroke="red" stroke-width="0.273931" points="88.532,-25.2119 78.1116,-23.2971 85.0635,-31.2922 88.532,-25.2119"/>
</g>
<!-- &#45;4&#45;&gt;3 -->
<g id="edge10" class="edge"><title>&#45;4&#45;&gt;3</title>
<path fill="none" stroke="red" stroke-width="0.149293" d="M170.823,-65.9353C160.944,-57.2539 144.966,-43.2129 132.466,-32.2276"/>
<polygon fill="red" stroke="red" stroke-width="0.149293" points="134.674,-29.509 124.852,-25.5369 130.054,-34.7672 134.674,-29.509"/>
</g>
<!-- &#45;5 -->
<g id="node5" class="node"><title>&#45;5</title>
<polygon fill="lightgray" stroke="black" points="234,-84 210,-84 210,-66 234,-66 234,-84"/>
<text text-anchor="middle" x="222" y="-72.8" font-family="Times,serif" font-size="9.00">&#45;5</text>
</g>
<!-- &#45;5&#45;&gt;0 -->
<g id="edge13" class="edge"><title>&#45;5&#45;&gt;0</title>
<path fill="none" stroke="green" stroke-width="0.212265" d="M213.657,-65.9353C204.867,-57.4378 190.764,-43.8052 179.513,-32.9295"/>
<polygon fill="green" stroke="green" stroke-width="0.212265" points="181.903,-30.3714 172.28,-25.9376 177.038,-35.4043 181.903,-30.3714"/>
</g>
<!-- &#45;5&#45;&gt;1 -->
<g id="edge8" class="edge"><title>&#45;5&#45;&gt;1</title>
<path fill="none" stroke="green" stroke-width="0.142604" d="M220.331,-65.9353C218.928,-59.1507 216.847,-49.0926 214.92,-39.7779"/>
<polygon fill="green" stroke="green" stroke-width="0.142604" points="218.307,-38.8746 212.853,-29.7912 211.452,-40.2929 218.307,-38.8746"/>
</g>
<!-- &#45;5&#45;&gt;2 -->
<g id="edge28" class="edge"><title>&#45;5&#45;&gt;2</title>
<path fill="none" stroke="red" stroke-width="0.237936" d="M209.601,-69.1582C206.783,-68.0909 203.797,-66.9855 201,-66 152.085,-48.763 137.338,-51.1878 90,-30 88.9873,-29.5467 87.9629,-29.0619 86.937,-28.5549"/>
<polygon fill="red" stroke="red" stroke-width="0.237936" points="88.3961,-25.3638 77.9419,-23.6431 85.0412,-31.5075 88.3961,-25.3638"/>
</g>
<!-- &#45;5&#45;&gt;3 -->
<g id="edge21" class="edge"><title>&#45;5&#45;&gt;3</title>
<path fill="none" stroke="red" stroke-width="0.475015" d="M209.945,-67.904C193.549,-59.5629 163.354,-44.0256 138,-30 137.029,-29.4629 136.039,-28.9094 135.041,-28.3466"/>
<polygon fill="red" stroke="red" stroke-width="0.475015" points="136.561,-25.1834 126.148,-23.2304 133.07,-31.2509 136.561,-25.1834"/>
</g>
<!-- &#45;6 -->
<g id="node6" class="node"><title>&#45;6</title>
<polygon fill="lightgray" stroke="black" points="276,-84 252,-84 252,-66 276,-66 276,-84"/>
<text text-anchor="middle" x="264" y="-72.8" font-family="Times,serif" font-size="9.00">&#45;6</text>
</g>
<!-- &#45;6&#45;&gt;0 -->
<g id="edge9" class="edge"><title>&#45;6&#45;&gt;0</title>
<path fill="none" stroke="green" stroke-width="0.619686" d="M251.81,-67.1951C236.433,-58.5951 209.196,-43.307 186,-30 185.038,-29.4479 184.054,-28.882 183.062,-28.3093"/>
<polygon fill="green" stroke="green" stroke-width="0.619686" points="184.595,-25.152 174.19,-23.1564 181.079,-31.2052 184.595,-25.152"/>
</g>
<!-- &#45;6&#45;&gt;1 -->
<g id="edge15" class="edge"><title>&#45;6&#45;&gt;1</title>
<path fill="none" stroke="red" stroke-width="0.12718" d="M256.492,-65.9353C248.825,-57.7004 236.668,-44.643 226.708,-33.9455"/>
<polygon fill="red" stroke="red" stroke-width="0.12718" points="229.007,-31.2781 219.631,-26.3442 223.883,-36.0481 229.007,-31.2781"/>
</g>
<!-- &#45;6&#45;&gt;2 -->
<g id="edge24" class="edge"><title>&#45;6&#45;&gt;2</title>
<path fill="none" stroke="red" stroke-width="0.115064" d="M251.658,-68.9858C248.837,-67.9275 245.835,-66.8693 243,-66 176.212,-45.5204 154.885,-55.8843 90,-30 88.9695,-29.5889 87.9305,-29.1387 86.8927,-28.6597"/>
<polygon fill="red" stroke="red" stroke-width="0.115064" points="88.3263,-25.4579 77.854,-23.8507 85.0383,-31.6377 88.3263,-25.4579"/>
</g>
<!-- &#45;6&#45;&gt;3 -->
<g id="edge2" class="edge"><title>&#45;6&#45;&gt;3</title>
<path fill="none" stroke="green" stroke-width="0.154169" d="M251.589,-69.1927C248.772,-68.1236 245.788,-67.0087 243,-66 196.609,-49.2164 182.859,-50.5291 138,-30 136.991,-29.5383 135.97,-29.0466 134.947,-28.5339"/>
<polygon fill="green" stroke="green" stroke-width="0.154169" points="136.411,-25.3452 125.961,-23.6016 133.043,-31.4816 136.411,-25.3452"/>
</g>
<!-- &#45;7 -->
<g id="node7" class="node"><title>&#45;7</title>
<polygon fill="lightgray" stroke="black" points="24,-84 0,-84 0,-66 24,-66 24,-84"/>
<text text-anchor="middle" x="12" y="-72.8" font-family="Times,serif" font-size="9.00">&#45;7</text>
</g>
<!-- &#45;7&#45;&gt;0 -->
<g id="edge4" class="edge"><title>&#45;7&#45;&gt;0</title>
<path fill="none" stroke="green" stroke-width="0.176719" d="M24.4133,-69.1988C27.2303,-68.1294 30.2133,-67.0129 33,-66 78.9709,-49.2916 92.3753,-50.0282 137,-30 138.362,-29.3889 139.747,-28.7288 141.133,-28.0396"/>
<polygon fill="green" stroke="green" stroke-width="0.176719" points="142.855,-31.0875 150.016,-23.2788 139.548,-24.9177 142.855,-31.0875"/>
</g>
<!-- &#45;7&#45;&gt;1 -->
<g id="edge27" class="edge"><title>&#45;7&#45;&gt;1</title>
<path fill="none" stroke="green" stroke-width="0.163526" d="M24.3429,-68.9889C27.1636,-67.9304 30.1658,-66.8713 33,-66 99.3591,-45.5986 120.312,-55.2035 185,-30 186.391,-29.4582 187.798,-28.8512 189.201,-28.2016"/>
<polygon fill="green" stroke="green" stroke-width="0.163526" points="190.883,-31.2718 198.125,-23.5387 187.641,-25.0677 190.883,-31.2718"/>
</g>
<!-- &#45;7&#45;&gt;2 -->
<g id="edge20" class="edge"><title>&#45;7&#45;&gt;2</title>
<path fill="none" stroke="green" stroke-width="0.229162" d="M19.5085,-65.9353C27.1755,-57.7004 39.3324,-44.643 49.2921,-33.9455"/>
<polygon fill="green" stroke="green" stroke-width="0.229162" points="52.1167,-36.0481 56.3692,-26.3442 46.9934,-31.2781 52.1167,-36.0481"/>
</g>
<!-- &#45;7&#45;&gt;3 -->
<g id="edge12" class="edge"><title>&#45;7&#45;&gt;3</title>
<path fill="none" stroke="green" stroke-width="0.292458" d="M24.1013,-67.1189C41.0333,-57.4908 72.049,-39.8545 92.8469,-28.0282"/>
<polygon fill="green" stroke="green" stroke-width="0.292458" points="94.6335,-31.0386 101.596,-23.053 91.1734,-24.9536 94.6335,-31.0386"/>
</g>
</g>
</svg>
